<svg width="292" height="389" viewBox="0 0 292 389" fill="none" xmlns="http://www.w3.org/2000/svg">
<path d="M16.7251 71.7117L20.1077 62.2404C20.1077 62.2404 20.1077 62.2404 20.7842 62.2404C21.4608 62.2404 22.1373 62.9169 22.8138 62.9169C24.1669 63.5934 26.8729 64.9465 29.579 67.6526C30.9321 69.0056 32.2851 70.3586 32.9616 72.3882C34.3147 74.4178 34.9912 76.4473 35.6677 78.4769C37.0208 83.2126 37.0208 87.9482 37.0208 93.3604C37.0208 103.508 34.3147 115.009 32.9616 127.187C30.9321 139.364 28.9025 151.541 29.579 164.395C29.579 170.484 30.2556 176.573 32.2851 181.985C32.9616 184.691 34.3147 187.397 35.6677 190.103C35.6677 190.78 36.3443 191.456 36.3443 192.133C37.0208 192.809 37.0208 193.486 37.6973 194.162L38.3738 194.839L39.0503 195.515C39.7269 196.192 39.7269 196.868 40.4034 196.868C43.786 200.928 47.8451 203.634 52.5808 204.987C53.9338 205.663 54.6104 205.663 55.9634 205.663C57.3165 205.663 57.993 206.34 59.346 206.34C61.3756 206.34 64.0817 206.34 66.1113 206.34C70.1704 205.663 74.2295 204.987 77.6121 203.634C80.9948 202.281 83.7008 200.928 86.4069 199.574C91.1426 196.868 93.8487 195.515 93.1722 195.515L99.2609 203.634C99.2609 203.634 98.5843 204.31 97.2313 204.987C95.8783 205.663 93.8487 207.016 91.1426 208.369C88.4365 209.722 85.0539 211.075 80.9948 213.105C76.9356 214.458 72.2 215.811 66.7878 216.488C64.0817 216.488 61.3756 217.164 57.993 216.488C55.9634 217.164 54.6104 217.164 52.5808 217.164C51.2278 216.488 49.1982 216.488 47.8451 215.811C41.7564 213.781 35.6677 209.722 31.6086 204.31C30.9321 203.634 30.2556 202.957 30.2556 202.281L29.579 200.927L28.9025 199.574C28.226 198.898 28.226 198.221 27.5495 197.545C26.8729 196.868 26.8729 196.192 26.1964 195.515C24.8434 192.809 23.4903 189.427 22.1373 186.044C20.1077 179.279 19.4312 172.514 18.7547 165.748C18.7547 152.218 20.7842 138.687 22.8138 126.51C24.8434 114.333 26.8729 103.508 26.8729 94.037C26.8729 89.3013 26.8729 85.2421 25.5199 82.536C24.8434 79.1534 23.4903 77.1239 22.1373 75.7708C20.7842 74.4178 19.4312 73.7412 18.0781 73.0647C18.0781 72.3882 17.4016 71.7117 16.7251 71.7117Z" fill="#4A4B4D"/>
<path d="M16.725 71.7121L18.7546 66.9764C18.7546 66.9764 18.7546 66.9764 19.4311 66.9764C20.1077 66.9764 20.1077 67.653 20.7842 67.653C22.1372 68.3295 24.1668 69.6825 26.1964 71.7121C28.2259 73.7416 30.2555 77.1243 30.932 80.5069C32.2851 84.566 32.2851 88.6252 32.2851 94.0373C32.2851 103.509 30.2555 115.009 28.2259 127.187C26.1964 139.364 24.1668 152.218 24.8433 165.072C24.8433 171.837 25.5198 177.926 27.5494 184.015C28.2259 187.397 29.579 190.104 30.932 192.81C31.6085 193.486 31.6085 194.163 32.2851 194.839C32.9616 195.516 32.9616 196.192 33.6381 196.869L34.3146 197.545L34.9911 198.222C35.6677 198.898 35.6677 199.575 36.3442 200.251C40.4033 204.987 45.139 208.37 50.5512 210.399C51.9042 211.076 53.2573 211.076 54.6103 211.752C55.9634 211.752 57.3164 212.429 58.6694 212.429C61.3755 212.429 64.0816 212.429 66.1112 212.429C70.8468 211.752 75.5825 210.399 78.9651 209.046C83.0243 207.693 85.7303 206.34 88.4364 204.987C91.1425 203.634 93.1721 202.281 94.5251 201.604C95.8782 200.928 96.5547 200.251 96.5547 200.251L99.2608 204.31C99.2608 204.31 98.5843 204.987 97.2312 205.664C95.8782 206.34 93.8486 207.693 91.1425 209.046C88.4364 210.399 85.0538 211.752 80.9947 213.782C76.9356 215.135 72.1999 216.488 66.7877 217.164C64.0816 217.164 61.3755 217.841 57.9929 217.164C55.9634 217.164 54.6103 217.164 52.5807 217.164C51.2277 216.488 49.1981 216.488 47.8451 215.811C41.7564 213.782 35.6677 209.723 31.6085 204.31C30.932 203.634 30.2555 202.957 30.2555 202.281L29.579 200.928L28.9024 199.575C28.2259 198.898 28.2259 198.222 27.5494 197.545C26.8729 196.869 26.8729 196.192 26.1964 195.516C24.8433 192.81 23.4903 189.427 22.1372 186.044C20.1077 179.279 19.4311 172.514 18.7546 165.749C18.7546 152.218 20.7842 138.688 22.8137 126.51C24.8433 114.333 26.8729 103.509 26.8729 94.0373C26.8729 89.3017 26.8729 85.2425 25.5198 82.5364C24.8433 79.1538 23.4903 77.1242 22.1372 75.7712C20.7842 74.4182 19.4311 73.7416 18.0781 73.0651C18.0781 72.3886 17.4016 71.7121 16.725 71.7121Z" fill="#2B2C2E"/>
<path d="M60.0224 218.517V207.016C60.0224 207.016 62.0519 207.016 63.405 207.016C64.0815 207.016 65.4345 207.016 66.1111 207.016C66.7876 207.016 67.4641 207.016 67.4641 207.016L69.4937 218.517C69.4937 218.517 68.8172 218.517 68.1406 218.517C67.4641 218.517 66.1111 218.517 64.758 219.194C62.0519 218.517 60.0224 218.517 60.0224 218.517Z" fill="#7A7C7E"/>
<path d="M43.1094 214.458L48.5216 204.31H49.1981C49.8746 204.31 50.5511 204.986 51.2276 204.986C51.9042 204.986 51.9042 204.986 52.5807 205.663C53.2572 205.663 53.2572 205.663 53.9337 205.663C54.6103 205.663 55.2868 205.663 55.2868 205.663L52.5807 217.164C52.5807 217.164 51.9042 217.164 51.2276 216.487C50.5511 216.487 50.5511 216.487 49.8746 215.811C49.1981 215.811 48.5216 215.134 47.845 215.134C46.492 214.458 45.8155 214.458 44.4624 213.781C43.7859 215.134 43.1094 214.458 43.1094 214.458Z" fill="#7A7C7E"/>
<path d="M29.5791 202.957L39.0504 196.192C39.0504 196.192 39.0504 196.868 39.7269 196.868L40.4035 197.545L41.08 198.221L41.7565 198.898L42.433 199.575C43.1096 200.251 43.1096 200.251 43.1096 200.251L35.6678 209.046C35.6678 209.046 34.9913 208.369 34.3148 207.693C34.3148 207.693 33.6382 207.016 32.9617 206.34C32.2852 205.663 32.2852 205.663 31.6087 204.987C30.9321 204.31 30.9321 204.31 30.2556 203.634C29.5791 202.957 29.5791 202.957 29.5791 202.281C30.2556 203.634 29.5791 202.957 29.5791 202.957Z" fill="#7A7C7E"/>
<path d="M22.1372 188.074L32.9616 184.015C32.9616 184.015 32.9616 184.691 33.6381 185.368C33.6381 186.044 34.3146 186.721 34.3146 187.397C34.3146 188.074 34.9911 188.074 34.9911 188.75C34.9911 189.427 35.6677 189.427 35.6677 190.103C35.6677 190.78 36.3442 191.456 36.3442 191.456L25.5198 196.192C25.5198 196.192 25.5198 195.516 24.8433 194.839C24.8433 194.162 24.1668 194.162 24.1668 193.486C24.1668 192.809 23.4903 192.133 23.4903 192.133C22.8137 190.78 22.8137 190.103 22.1372 189.427C22.1372 188.75 22.1372 188.074 22.1372 188.074Z" fill="#7A7C7E"/>
<path d="M18.7545 171.837L30.2554 170.484C30.2554 170.484 30.2554 172.513 30.9319 174.543C30.9319 176.572 31.6084 177.926 31.6084 177.926L20.1076 180.632C20.1076 180.632 19.431 178.602 19.431 175.896C18.7545 173.866 18.7545 171.837 18.7545 171.837Z" fill="#7A7C7E"/>
<path d="M18.078 156.277L29.5789 156.953C29.5789 156.953 29.5789 158.983 29.5789 161.013C29.5789 163.042 29.5789 165.072 29.5789 165.072H18.078C18.078 165.072 18.078 163.042 18.078 161.013C18.078 158.307 18.078 156.277 18.078 156.277Z" fill="#7A7C7E"/>
<path d="M19.431 140.717L30.9319 142.07C30.9319 142.07 30.9319 144.1 30.2554 146.129C30.2554 148.159 29.5789 150.188 29.5789 150.188L18.7545 148.835C18.7545 148.835 18.7545 146.806 19.431 144.776C19.431 142.747 19.431 140.717 19.431 140.717Z" fill="#7A7C7E"/>
<path d="M22.1373 125.833L33.6382 127.187L32.2851 135.305L20.7842 133.952L22.1373 125.833Z" fill="#7A7C7E"/>
<path d="M24.1667 110.95L35.6676 112.98C35.6676 112.98 35.6676 115.009 34.9911 117.039C34.3145 119.068 34.3145 121.098 34.3145 121.098L22.8137 119.068C22.8137 119.068 22.8137 117.039 23.4902 115.009C24.1667 112.98 24.1667 110.95 24.1667 110.95Z" fill="#7A7C7E"/>
<path d="M26.1964 96.0664L37.6973 96.7429C37.6973 96.7429 37.6973 98.7725 37.6973 100.802C37.6973 102.832 37.0208 104.861 37.0208 104.861L25.5199 104.185C25.5199 104.185 25.5199 102.155 26.1964 100.126C26.1964 98.096 26.1964 96.0664 26.1964 96.0664Z" fill="#7A7C7E"/>
<path d="M25.5199 83.2122L37.0208 80.5061C37.0208 80.5061 37.6973 83.2122 37.6973 85.2417C37.6973 87.2713 38.3738 89.9774 38.3738 89.9774L26.8729 90.6539C26.8729 90.6539 26.8729 88.6244 26.8729 87.2713C25.5199 84.5652 25.5199 83.2122 25.5199 83.2122Z" fill="#7A7C7E"/>
<path d="M16.7251 29.7673C18.7547 29.0908 20.7843 30.4438 21.4608 32.4734C22.1373 34.503 20.7843 36.5325 18.7547 37.2091C13.3425 38.5621 9.95992 41.2682 9.28339 45.3273C7.93035 50.7395 11.313 57.5047 12.666 58.8578C14.0191 60.2108 18.7547 59.5343 21.4608 58.8578C27.5495 56.8282 26.1965 48.7099 26.1965 47.3569L23.4904 40.5917C22.8138 38.5621 23.4904 36.5325 25.5199 35.856C27.5495 35.1795 29.5791 35.856 30.2556 37.8856L32.9617 44.6508C32.9617 44.6508 32.9617 44.6508 32.9617 45.3273C34.3147 50.7395 34.3147 62.2404 23.4904 65.623C22.1373 66.2995 12.666 69.6821 6.5773 64.27C3.19469 61.5639 -1.54097 52.0925 0.4886 43.2977C2.51817 39.2386 5.90078 33.1499 16.7251 29.7673C16.0486 30.4438 16.0486 30.4438 16.7251 29.7673Z" fill="#425863"/>
<path opacity="0.6" d="M5.2243 54.7981C6.57735 60.2103 9.28344 64.9459 13.3426 67.652C18.0782 68.3285 23.4904 66.9755 24.1669 66.2989C28.9026 64.9459 30.9322 62.2398 32.9617 58.8572C32.2852 57.5042 30.9322 56.8276 30.2556 55.4746C29.5791 54.1215 29.5791 52.7685 30.2556 51.4155C30.9322 46.0033 28.9026 40.5911 26.1965 35.8554C24.8435 36.532 23.4904 38.5615 24.1669 40.5911L26.873 47.3563C26.873 48.7094 28.9026 56.8276 22.1374 58.8572C19.4313 59.5337 14.6956 60.2102 13.3426 58.8572C11.313 57.5042 8.60692 50.7389 9.95996 45.3267C10.6365 41.2676 14.0191 38.5615 19.4313 37.2085C20.7843 36.532 21.4608 35.8554 22.1374 34.5024C13.3426 31.7963 5.2243 43.2972 5.2243 50.0624C5.2243 51.4155 5.2243 53.445 5.2243 54.7981Z" fill="#425863"/>
<path d="M18.0783 76.4473C13.3426 73.7412 11.313 66.976 14.6956 62.2403C17.4017 57.5047 24.167 55.4751 28.9026 58.8577C33.6383 61.5638 35.6679 68.329 32.2852 73.0647C28.9026 77.8003 22.8139 79.8299 18.0783 76.4473Z" fill="#838587"/>
<path opacity="0.6" d="M28.2261 77.1235C26.873 77.1235 26.1965 77.8 24.8435 77.1235C20.1078 76.4469 16.7252 73.0643 16.0487 69.0051C15.3721 64.946 17.4017 60.2103 21.4608 59.5338C24.1669 58.8573 26.873 59.5339 29.5791 60.8869C29.5791 60.8869 28.9026 60.2104 28.2261 60.2104C23.4904 57.5043 17.4017 58.8573 14.0191 63.593C11.313 68.3287 12.6661 74.4173 17.4017 77.8C20.7843 78.4765 24.8435 78.4765 28.2261 77.1235Z" fill="#67696B"/>
<path d="M27.5494 69.0048C26.8729 68.3282 26.1964 66.9752 26.8729 66.2987C27.5494 65.6221 28.9024 64.9456 29.579 65.6221C30.2555 66.2987 30.932 67.6517 30.2555 68.3282C30.2555 69.0048 28.9024 69.0048 27.5494 69.0048Z" fill="white"/>
<path d="M26.8731 64.2699C26.1965 64.2699 26.1965 63.5933 26.8731 62.9168C26.8731 62.2403 27.5496 62.2403 28.2261 62.9168C28.9026 62.9168 28.9026 63.5934 28.2261 64.2699C28.2261 64.2699 27.5496 64.2699 26.8731 64.2699Z" fill="white"/>
<path opacity="0.6" d="M31.6087 73.0646C34.3148 68.3289 32.9617 62.2402 28.2261 58.8576C23.4904 56.1515 17.4017 57.5046 14.0191 62.2402C11.313 66.9759 12.6661 73.0646 17.4017 76.4472C22.8139 79.8298 28.9026 77.8002 31.6087 73.0646ZM21.4608 64.2698C22.8139 61.5637 26.1965 60.8872 28.9026 62.2402C31.6087 63.5933 32.2852 66.9759 30.9322 69.682C29.5791 72.388 26.1965 73.0646 23.4904 71.7115C20.7843 69.682 20.1078 66.2994 21.4608 64.2698Z" fill="#67696B"/>
<path d="M267.038 40.592L261.626 32.4738C261.626 32.4738 261.626 32.4737 260.95 33.1503C260.273 33.1503 260.273 33.8268 259.597 34.5033C258.244 35.8564 256.214 37.8859 254.185 40.592C253.508 41.9451 252.831 43.9746 252.155 46.0042C251.478 48.0338 251.478 50.0633 251.478 52.7694C251.478 57.5051 252.155 62.2408 253.508 67.6529C256.214 77.8008 260.95 87.9486 266.362 99.4495C271.098 110.274 276.51 122.451 279.216 134.629C280.569 140.717 281.245 146.806 281.245 152.895C281.245 155.601 280.569 158.307 279.892 161.69C279.892 162.366 279.892 163.043 279.216 163.719C279.216 164.396 278.539 165.072 278.539 165.749V166.425L277.863 167.102C277.863 167.778 277.186 168.455 277.186 169.131C275.157 173.867 271.774 177.926 267.715 179.956C267.038 180.632 265.685 181.309 265.009 181.985C263.656 182.662 262.979 182.662 261.626 183.338C259.597 184.015 257.567 184.691 254.861 184.691C250.802 185.368 246.066 185.368 242.684 184.691C239.301 184.015 235.918 184.015 233.212 183.338C227.8 181.985 225.094 180.632 225.094 181.309L221.711 190.78C221.711 190.78 222.388 191.457 224.418 191.457C225.771 192.133 228.477 192.81 231.183 193.486C233.889 194.163 237.948 194.839 242.007 195.516C246.066 196.192 250.802 196.192 256.214 195.516C258.92 194.839 261.626 194.839 264.332 193.486C265.685 192.81 267.038 192.133 268.392 192.133C269.745 191.457 271.098 190.78 272.451 190.104C277.863 186.721 282.598 181.309 285.305 175.22C285.981 174.544 285.981 173.867 286.658 172.514L287.334 171.161L288.011 169.808C288.011 169.131 288.687 168.455 288.687 167.102C288.687 166.425 289.364 165.749 289.364 164.396C290.04 161.013 290.717 157.63 290.717 154.248C291.393 147.483 290.04 140.041 288.687 133.952C285.305 120.422 280.569 108.244 275.157 97.4199C270.421 85.9191 265.685 75.7712 262.979 66.9764C261.626 62.2408 260.95 58.8581 260.95 55.4755C260.95 52.0929 261.626 49.3868 262.979 48.0338C264.332 46.0042 265.009 45.3277 266.362 43.9746C265.685 41.2686 266.362 40.592 267.038 40.592Z" fill="#4A4B4D"/>
<path d="M267.038 40.5911L264.332 36.532C264.332 36.532 264.332 36.532 263.656 37.2085C263.656 37.2085 262.979 37.885 262.303 38.5615C260.95 39.2381 259.597 41.2676 258.243 43.2972C256.89 46.0033 255.537 49.3859 255.537 53.4451C255.537 57.5042 256.214 61.5633 257.567 66.299C260.273 75.7703 265.009 85.9182 269.744 97.419C274.48 108.92 279.892 120.421 282.598 133.275C283.951 139.363 284.628 146.129 284.628 152.894C284.628 156.276 283.951 158.983 283.275 162.365C283.275 163.042 282.598 163.718 282.598 164.395C282.598 165.071 281.922 165.748 281.922 166.424L281.245 167.777L280.569 169.13C280.569 169.807 279.892 170.483 279.892 171.16C277.186 176.572 273.127 181.308 268.391 184.69C267.038 185.367 265.685 186.043 265.009 186.72C263.656 187.397 262.303 188.073 260.95 188.073C258.243 188.75 256.214 189.426 253.508 190.103C248.772 190.779 244.037 190.779 239.977 190.103C235.918 189.426 232.536 188.75 229.83 188.073C227.123 187.396 225.094 186.72 223.741 186.043C222.388 185.367 221.711 185.367 221.711 185.367L219.682 190.103C219.682 190.103 220.358 190.779 222.388 190.779C223.741 191.456 226.447 192.132 229.153 192.809C231.859 193.485 235.918 194.162 239.977 194.838C244.037 195.515 248.772 195.515 254.184 194.838C256.89 194.162 259.597 194.162 262.303 192.809C263.656 192.132 265.009 191.456 266.362 191.456C267.715 190.779 269.068 190.103 270.421 189.426C275.833 186.043 280.569 180.631 283.275 174.543C283.951 173.866 283.951 173.19 284.628 171.837L285.304 170.483L285.981 169.13C285.981 168.454 286.657 167.777 286.657 166.424C286.657 165.748 287.334 165.071 287.334 163.718C288.01 160.336 288.687 156.953 288.687 153.57C289.364 146.805 288.01 139.363 286.657 133.275C283.275 119.744 278.539 107.567 273.127 96.7425C268.391 85.2416 263.656 75.0938 260.95 66.299C259.597 61.5633 258.92 58.1807 258.92 54.7981C258.92 51.4155 259.597 48.7094 260.95 47.3564C262.303 45.3268 262.979 44.6503 264.332 43.2972C265.685 41.2676 266.362 40.5911 267.038 40.5911Z" fill="#2B2C2E"/>
<path d="M260.95 193.485L257.567 181.984C257.567 181.984 255.537 182.661 254.184 182.661C253.508 182.661 252.155 182.661 251.478 182.661C250.802 182.661 250.125 182.661 250.125 182.661L250.802 194.162C250.802 194.162 251.478 194.162 252.155 194.162C252.831 194.162 254.184 194.162 255.537 193.485C258.92 194.162 260.95 193.485 260.95 193.485Z" fill="#7A7C7E"/>
<path d="M276.509 185.367L269.068 176.573C269.068 176.573 268.391 176.572 268.391 177.249C267.715 177.926 267.038 177.926 266.362 178.602C265.685 178.602 265.685 179.279 265.009 179.279L264.332 179.955C263.656 179.955 263.656 180.632 263.656 180.632L269.068 190.779C269.068 190.779 269.744 190.779 270.421 190.103C271.097 190.103 271.097 189.426 271.774 189.426C272.45 189.426 272.45 188.75 273.127 188.75C274.48 188.073 275.156 187.397 275.833 186.72C275.833 186.044 275.833 185.367 276.509 185.367Z" fill="#7A7C7E"/>
<path d="M286.657 170.483L275.833 166.424C275.833 166.424 275.833 167.101 275.157 167.777C275.157 167.777 275.157 168.454 274.48 169.13C274.48 169.807 273.804 169.807 273.804 170.483C273.804 171.16 273.127 171.16 273.127 171.836C273.127 172.513 272.45 172.513 272.45 172.513C271.774 173.189 271.774 173.189 271.774 173.189L281.245 179.955C281.245 179.955 281.922 179.278 281.922 178.601C281.922 177.925 282.598 177.925 282.598 177.248C282.598 176.572 283.275 175.895 283.275 175.895C283.275 175.219 283.951 174.542 283.951 174.542C283.951 173.866 284.628 173.866 284.628 173.189C285.981 171.16 286.657 170.483 286.657 170.483Z" fill="#7A7C7E"/>
<path d="M290.717 154.247L279.216 153.57C279.216 153.57 279.216 154.247 279.216 154.923C279.216 155.6 279.216 156.276 278.539 157.629C278.539 158.306 278.539 158.306 278.539 158.983C278.539 159.659 278.539 159.659 278.539 160.336C278.539 161.012 278.539 161.689 278.539 161.689L290.04 164.395C290.04 164.395 290.04 163.718 290.04 163.042C290.04 162.365 290.04 162.365 290.717 161.689C290.717 161.012 290.717 160.336 290.717 160.336C290.717 158.982 290.717 158.306 291.393 156.953C290.04 154.923 290.717 154.247 290.717 154.247Z" fill="#7A7C7E"/>
<path d="M289.364 138.01L277.863 140.04C277.863 140.04 277.863 142.07 278.539 144.099C278.539 146.129 278.539 148.158 278.539 148.158L290.04 147.482C290.04 147.482 290.04 145.452 290.04 142.746C290.04 140.04 289.364 138.01 289.364 138.01Z" fill="#7A7C7E"/>
<path d="M285.981 122.451L275.157 125.833C275.157 125.833 275.833 127.863 276.51 129.892C277.186 131.922 277.186 133.951 277.186 133.951L288.687 131.245C288.687 131.245 288.011 129.216 287.334 127.186C286.658 124.48 285.981 122.451 285.981 122.451Z" fill="#7A7C7E"/>
<path d="M280.569 108.243L269.745 112.302C269.745 112.302 270.421 114.332 271.098 116.361C271.774 118.391 272.451 120.42 272.451 120.42L283.275 116.361C283.275 116.361 282.598 114.332 281.922 112.302C281.922 109.596 280.569 108.243 280.569 108.243Z" fill="#7A7C7E"/>
<path d="M275.156 94.0361L264.332 98.7718L267.715 106.214L277.863 101.478L275.156 94.0361Z" fill="#7A7C7E"/>
<path d="M269.068 80.5062L258.243 85.2419C258.243 85.2419 258.92 87.2714 259.596 89.301C260.273 91.3306 260.949 93.3601 260.949 93.3601L271.774 88.6245C271.774 88.6245 271.097 86.5949 270.421 84.5654C269.744 81.8593 269.068 80.5062 269.068 80.5062Z" fill="#7A7C7E"/>
<path d="M263.656 66.2994L252.831 69.6821C252.831 69.6821 253.508 71.7117 254.184 73.7412C254.861 75.7708 255.537 77.8004 255.537 77.8004L266.362 73.7412C266.362 73.7412 265.685 71.7116 265.009 69.6821C264.332 68.329 263.656 66.2994 263.656 66.2994Z" fill="#7A7C7E"/>
<path d="M261.626 53.4449H250.125C250.125 53.4449 250.125 56.151 250.125 58.1806C250.125 60.2102 250.802 62.9162 250.802 62.9162L262.303 60.2102C262.303 60.2102 261.626 58.1806 261.626 56.8276C261.626 55.4745 261.626 53.4449 261.626 53.4449Z" fill="#7A7C7E"/>
<path d="M256.89 0C254.861 0 253.508 1.35305 252.831 3.38261C252.831 5.41218 254.184 7.44174 256.214 7.44174C261.626 7.44174 265.685 9.4713 267.715 12.8539C270.421 17.5896 269.068 25.0313 267.715 27.0609C266.362 29.0905 261.626 29.767 258.92 29.0905C252.155 28.4139 251.478 20.2957 251.478 18.9426L252.155 12.1774C252.155 10.1478 250.802 8.11825 248.772 8.11825C246.742 8.11825 244.713 9.4713 244.713 11.5009L244.036 18.9426C244.036 18.9426 244.036 18.9426 244.036 19.6191C244.036 25.0313 246.742 36.5322 258.243 37.2087C259.596 37.2087 269.744 37.8853 274.48 31.12C276.509 27.7374 279.216 17.5896 275.156 9.4713C272.45 5.41217 267.715 0.676523 256.89 0Z" fill="#425863"/>
<path opacity="0.6" d="M273.127 20.9718C273.127 26.384 271.774 31.7961 268.391 35.8553C263.656 37.8849 258.243 37.2083 257.567 37.2083C252.831 37.2083 249.449 34.5022 247.419 31.7961C248.096 30.4431 248.772 29.7666 248.772 27.737C248.772 26.384 248.096 25.0309 248.096 23.6779C246.066 18.2657 246.742 12.8535 248.772 8.11784C250.802 8.79437 252.155 10.1474 251.478 12.177L250.802 18.9422C250.802 20.2953 251.478 28.4135 258.243 29.0901C260.949 29.0901 265.685 29.0901 267.038 27.0605C268.391 25.0309 269.744 17.5892 267.038 12.8535C265.009 9.47089 261.626 7.44133 255.537 7.44133C254.184 7.44133 252.831 6.76481 252.155 5.41177C258.92 0.676111 269.744 9.47089 271.097 16.2361C273.127 18.2657 273.127 19.6187 273.127 20.9718Z" fill="#425863"/>
<path d="M267.038 45.3276C271.097 41.2685 271.097 35.1798 267.038 31.1206C262.979 27.0615 256.89 27.0615 252.831 31.1206C248.772 35.1798 248.772 41.2685 252.831 45.3276C256.214 49.3867 262.979 49.3867 267.038 45.3276Z" fill="#838587"/>
<path opacity="0.6" d="M256.89 48.0337C258.243 48.0337 258.92 48.0337 260.273 47.3572C264.332 45.3276 267.038 41.945 266.362 37.2094C265.685 33.1502 262.302 29.0911 258.243 29.0911C255.537 29.0911 252.831 30.4441 250.802 31.7972L251.478 31.1206C255.537 27.0615 261.626 27.0615 265.685 31.1206C269.744 35.1798 269.744 41.2685 265.685 45.3276C264.332 48.0337 260.273 49.3868 256.89 48.0337Z" fill="#67696B"/>
<path d="M255.538 40.5907C256.214 39.9142 256.214 38.5611 255.538 37.8846C254.861 37.2081 253.508 37.2081 252.831 37.8846C252.155 38.5611 252.155 39.9142 252.831 40.5907C253.508 41.2672 254.861 41.2672 255.538 40.5907Z" fill="white"/>
<path d="M254.861 35.8557C254.861 35.8557 254.861 35.1792 254.861 34.5027C254.861 34.5027 254.184 34.5027 253.508 34.5027C253.508 34.5027 253.508 35.1792 253.508 35.8557C254.184 35.8557 254.861 35.8557 254.861 35.8557Z" fill="white"/>
<path opacity="0.6" d="M267.038 45.3276C271.097 41.2685 271.097 35.1798 267.038 31.1206C262.979 27.0615 256.89 27.0615 252.831 31.1206C248.772 35.1798 248.772 41.2685 252.831 45.3276C256.214 49.3867 262.979 49.3867 267.038 45.3276ZM260.273 41.945C258.243 43.9746 254.861 43.9746 252.831 41.945C250.801 39.9154 250.801 36.5328 252.831 34.5033C254.861 32.4737 258.243 32.4737 260.273 34.5033C262.302 36.5328 262.302 39.9154 260.273 41.945Z" fill="#67696B"/>
<path d="M95.8782 296.316C91.1426 297.669 88.4365 301.729 89.113 306.464C89.7895 311.2 93.8487 314.583 98.5843 314.583L95.8782 296.316Z" fill="#425863"/>
<path d="M95.8781 308.494C93.8486 307.818 91.1425 307.141 89.7894 305.788V306.465C90.466 311.2 94.5251 314.583 99.2607 314.583L98.5842 308.494C97.2312 308.494 96.5547 308.494 95.8781 308.494Z" fill="#425863"/>
<path d="M99.2609 305.111C99.9374 310.524 99.9374 314.583 98.5844 314.583C97.9078 314.583 96.5548 310.524 95.8783 305.788C95.2018 300.376 95.2018 296.317 96.5548 296.317C97.2313 296.317 98.5844 300.376 99.2609 305.111Z" fill="#263841"/>
<path d="M95.2018 296.993C95.2018 296.993 88.4366 300.376 90.4662 307.818C89.7897 307.818 88.4366 302.405 95.2018 296.993Z" fill="white"/>
<path d="M98.5845 305.788C99.261 309.171 98.5845 312.554 97.9079 312.554C97.2314 312.554 96.5549 309.847 95.8784 306.465C95.2018 303.082 95.8784 299.7 96.5549 299.7C97.2314 299.7 97.9079 302.406 98.5845 305.788Z" fill="#001018"/>
<path d="M97.2314 301.729C96.5548 301.729 96.5548 303.759 96.5548 305.788C96.5548 307.818 97.2314 309.847 97.9079 309.847L101.967 309.171L101.291 301.729H97.2314Z" fill="#454849"/>
<path opacity="0.6" d="M97.2313 301.729C97.2313 302.406 97.2313 302.406 97.2313 301.729C97.2313 304.435 98.5844 307.141 99.9374 309.171H101.967L101.29 301.729H97.2313Z" fill="#7A7C7E"/>
<path d="M140.529 292.257C143.912 292.257 147.294 294.964 147.294 298.346C147.971 301.729 145.265 305.111 141.882 305.788L140.529 292.257Z" fill="#425863"/>
<path d="M143.235 301.052C144.588 300.376 146.617 299.023 147.294 297.67V298.346C147.97 301.729 145.264 305.112 141.882 305.788L141.205 301.052C141.882 301.729 142.558 301.052 143.235 301.052Z" fill="#425863"/>
<path d="M139.852 299.023C140.529 303.082 141.205 305.788 141.882 305.788C142.558 305.788 142.558 302.406 142.558 298.347C141.882 294.288 141.205 291.581 140.529 291.581C139.852 292.258 139.852 295.641 139.852 299.023Z" fill="#263841"/>
<path d="M141.205 292.257C141.205 292.257 146.617 293.61 146.617 299.023C147.294 299.699 147.294 294.964 141.205 292.257Z" fill="white"/>
<path d="M140.529 299.699C141.206 302.405 141.882 304.435 141.882 304.435C142.559 304.435 142.559 302.405 142.559 299.699C141.882 296.993 141.206 294.963 141.206 294.963C140.529 294.287 139.853 296.993 140.529 299.699Z" fill="#001018"/>
<path d="M140.529 296.317C141.205 296.317 141.205 297.67 141.882 299.023C141.882 300.376 141.882 301.729 141.205 301.729L138.499 302.405L137.823 296.317H140.529Z" fill="#454849"/>
<path opacity="0.6" d="M140.529 296.317C141.205 296.317 141.205 296.317 140.529 296.317C141.205 298.346 140.529 300.376 139.852 302.405H138.499L137.823 296.317H140.529Z" fill="#7A7C7E"/>
<path d="M124.292 250.313C120.91 244.901 118.204 242.195 115.498 240.842C115.498 240.842 114.145 240.165 112.791 240.165C110.762 240.165 110.085 241.518 110.085 241.518C108.056 242.871 106.026 246.254 103.997 252.343C99.261 268.579 100.614 335.555 112.115 355.174C112.115 355.174 114.821 359.233 123.616 359.91C124.969 360.586 126.998 359.91 127.675 359.91C128.351 359.91 130.381 359.233 131.734 358.557C139.852 355.851 141.882 351.115 141.882 351.115C147.971 330.143 133.087 264.52 124.292 250.313ZM135.793 308.494C135.793 313.23 135.117 318.642 131.058 322.025C127.675 324.731 121.586 327.437 116.851 326.084C108.056 323.378 105.35 311.877 105.35 303.082C103.32 300.376 106.026 296.317 107.379 294.287C110.085 290.228 114.145 287.522 118.88 287.522C130.381 287.522 135.117 299.023 135.793 308.494Z" fill="#E0E1E2"/>
<path d="M100.614 271.962C99.9376 292.934 101.291 324.054 106.703 342.997C109.409 340.291 112.792 337.585 113.468 334.202C113.468 330.819 113.468 327.437 113.468 324.054C107.379 319.995 105.35 310.524 105.35 302.405C103.32 299.699 106.026 295.64 107.379 293.611C108.056 292.257 109.409 290.904 110.762 289.551C110.762 287.522 110.085 286.169 109.409 284.139C108.056 279.404 104.673 275.344 100.614 271.962Z" fill="#696B6D"/>
<path d="M124.292 288.199C131.734 290.905 135.117 300.376 135.793 308.494C135.793 313.23 135.117 318.642 131.058 322.025C130.381 322.701 129.705 322.701 129.028 323.378C129.028 324.054 129.705 324.731 129.705 325.407C131.058 328.113 133.764 330.143 136.47 332.173C138.499 333.526 140.529 334.879 142.559 336.232C142.559 315.936 136.47 286.846 130.381 267.903C127.675 273.992 122.939 280.08 124.292 288.199Z" fill="#696B6D"/>
<path d="M124.292 250.313C120.91 244.901 118.204 242.195 115.498 240.842C115.498 240.842 114.144 240.165 112.791 240.165C110.762 240.165 110.085 241.518 110.085 241.518C109.409 242.195 108.056 242.871 107.379 244.901C108.732 244.224 110.762 243.548 113.468 244.224C116.851 245.577 118.204 252.343 118.88 255.049C120.233 261.137 120.233 267.903 120.233 273.991C120.233 277.374 120.91 282.11 118.204 284.139C116.174 286.169 113.468 286.169 111.438 288.198C110.085 289.551 108.056 291.581 106.703 292.258C104.673 293.611 102.644 292.934 101.291 291.581C101.291 301.052 101.967 311.2 103.32 320.671C103.997 319.995 104.673 319.318 106.026 319.318C108.732 319.318 109.409 321.348 110.762 323.378C114.144 327.437 118.204 329.466 122.939 328.113C128.351 326.76 131.734 328.113 132.411 334.202C133.087 341.644 134.44 349.762 133.764 357.204C139.852 354.498 141.205 351.115 141.205 351.115C147.971 330.143 133.087 264.52 124.292 250.313ZM135.793 308.494C135.793 313.23 135.117 318.642 131.058 322.025C127.675 324.731 121.586 327.437 116.851 326.084C108.056 323.378 105.35 311.877 105.35 303.082C103.32 300.376 106.026 296.317 107.379 294.287C110.085 290.228 114.144 287.522 118.88 287.522C130.381 287.522 135.117 299.023 135.793 308.494Z" fill="#CCCDCE"/>
<path d="M124.292 250.313C120.91 244.901 118.204 242.195 115.498 240.842C115.498 240.842 114.145 240.165 112.791 240.165C112.115 240.165 112.115 240.165 111.438 240.165C116.851 240.165 120.91 244.224 122.939 249.637C127.675 260.461 129.705 273.315 131.734 285.492C133.087 290.904 133.764 296.993 135.117 302.405C135.117 303.082 135.117 303.758 135.117 304.435C137.146 315.259 138.499 326.76 139.176 337.585C139.176 342.32 139.852 348.409 139.176 353.145C141.205 351.791 141.205 350.438 141.205 350.438C147.971 330.143 133.087 264.52 124.292 250.313Z" fill="#CCCDCE"/>
<path d="M140.529 296.317C137.823 289.551 132.411 291.581 128.352 293.61C125.646 295.64 121.586 296.317 119.557 296.317H118.204C116.174 296.317 112.115 296.993 108.732 296.317C104.673 294.963 98.5846 294.287 97.9081 301.729C96.555 308.494 103.32 321.348 120.233 319.995C120.91 319.995 120.91 319.995 121.586 319.995C122.263 319.995 122.263 319.995 122.939 319.995C139.852 316.612 143.235 303.082 140.529 296.317Z" fill="#E0E1E2"/>
<path d="M140.529 296.317C137.823 289.551 132.411 291.581 128.352 293.61C125.646 295.64 121.586 296.317 119.557 296.317H118.204C116.174 296.317 112.115 296.993 108.732 296.317C104.673 294.963 98.5846 294.287 97.9081 301.729C96.555 308.494 103.32 321.348 120.233 319.995C120.91 319.995 120.91 319.995 121.586 319.995C122.263 319.995 122.263 319.995 122.939 319.995C139.852 316.612 143.235 303.082 140.529 296.317ZM120.233 313.23C116.851 313.23 114.145 313.23 110.762 312.553C108.056 311.877 105.35 311.2 103.32 309.847C100.614 307.817 98.5846 304.435 98.5846 301.052C98.5846 300.376 99.2611 299.699 99.2611 299.023C99.9376 298.346 100.614 297.67 101.967 296.993C103.997 296.317 106.703 296.993 108.732 297.67C112.115 299.023 117.527 297.67 121.586 297.67C126.999 296.993 128.352 294.287 133.087 294.287C135.117 294.287 137.146 294.964 137.146 296.993C139.176 305.788 128.352 313.23 120.233 313.23Z" fill="#CCCDCE"/>
<path d="M107.379 245.577C107.379 245.577 103.997 250.313 102.644 263.167C101.29 275.344 101.967 291.581 101.967 291.581C101.967 291.581 106.026 287.522 105.35 277.374C103.997 266.549 103.997 253.695 107.379 245.577Z" fill="#CCCDCE"/>
<path d="M104.673 322.701C104.673 322.701 107.379 342.32 112.115 353.144C112.115 353.144 112.791 355.174 114.821 356.527C114.821 356.527 113.468 354.497 112.791 350.438C111.438 346.379 108.056 325.407 108.056 325.407C108.056 325.407 108.056 324.054 107.379 322.701C106.026 322.024 103.996 320.671 104.673 322.701Z" fill="#CCCDCE"/>
<path d="M100.614 309.847C99.9374 310.524 99.9374 310.524 99.9374 309.847C99.9374 309.171 99.9374 309.171 100.614 309.847C100.614 309.171 100.614 309.171 100.614 309.847Z" fill="#696B6D"/>
<path d="M104.673 313.907C104.673 314.583 104.673 314.583 104.673 313.907C103.996 314.583 103.996 314.583 103.996 313.907C103.996 313.907 103.996 313.907 104.673 313.907Z" fill="#696B6D"/>
<path d="M109.409 316.613C109.409 317.29 109.409 317.29 109.409 316.613C108.732 317.29 108.732 317.29 108.732 316.613C108.732 316.613 108.732 316.613 109.409 316.613Z" fill="#696B6D"/>
<path d="M114.144 318.642C113.468 319.319 113.468 319.319 113.468 318.642C113.468 318.642 113.468 317.966 114.144 318.642C114.144 317.966 114.144 317.966 114.144 318.642Z" fill="#696B6D"/>
<path d="M119.556 318.643C118.88 319.319 118.88 319.319 118.88 318.643C118.88 318.643 118.88 318.643 119.556 318.643Z" fill="#696B6D"/>
<path d="M139.175 305.112C139.852 305.788 139.852 305.112 139.852 305.112C139.852 304.435 139.852 304.435 139.175 305.112C139.175 304.435 139.175 304.435 139.175 305.112Z" fill="#696B6D"/>
<path d="M136.469 309.848C136.469 310.524 136.469 310.524 136.469 309.848C137.146 310.524 137.146 309.848 137.146 309.848C137.146 309.848 137.146 309.848 136.469 309.848Z" fill="#696B6D"/>
<path d="M132.41 313.907C132.41 314.584 133.087 314.584 132.41 313.907C133.087 314.584 133.087 313.907 133.087 313.907C133.087 313.907 133.087 313.231 132.41 313.907Z" fill="#696B6D"/>
<path d="M128.351 316.612C129.028 317.289 129.028 316.612 129.028 316.612C129.028 316.612 129.028 315.936 128.351 316.612Z" fill="#696B6D"/>
<path d="M122.939 317.965C122.939 318.642 123.615 318.642 122.939 317.965C123.615 318.642 123.615 317.965 123.615 317.965C123.615 317.965 123.615 317.965 122.939 317.965Z" fill="#696B6D"/>
<path d="M142.559 352.469C141.206 355.851 137.146 355.851 133.764 355.175C131.058 355.175 127.675 355.175 126.322 355.175H125.646C124.293 355.175 120.91 355.851 118.204 356.528C115.498 357.881 110.762 358.557 108.732 355.851C106.703 353.145 110.086 347.056 123.616 345.027H124.293H124.969C139.176 344.35 143.912 349.086 142.559 352.469Z" fill="#696B6D"/>
<path d="M150 374.793L139.852 355.85C137.823 353.144 133.087 352.468 129.028 352.468C128.352 352.468 126.999 352.468 126.322 352.468C125.645 352.468 124.969 353.144 123.616 353.144C119.557 354.497 115.498 356.527 114.145 359.233L108.732 380.205C108.732 380.205 106.703 389 115.498 389L120.91 388.323L139.852 386.294L145.265 385.617C154.059 382.911 150 374.793 150 374.793Z" fill="#425863"/>
<path d="M136.47 364.645C136.47 361.939 136.47 357.88 138.499 355.174C136.47 353.144 131.734 352.468 128.351 352.468C127.675 352.468 126.322 352.468 125.645 352.468C124.969 352.468 124.292 353.144 122.939 353.144C119.557 354.497 115.497 356.527 113.468 358.556C114.821 359.233 116.174 360.586 117.527 363.292C120.91 370.734 122.939 379.529 124.292 387.647L136.47 386.294C136.47 378.852 136.47 372.087 136.47 364.645Z" fill="#E0E1E2"/>
<path d="M108.056 380.882C108.056 382.912 108.056 388.324 115.497 388.324L145.264 384.265C152.706 382.235 151.353 376.823 150.677 374.794L108.056 380.882Z" fill="#425863"/>
<path d="M126.322 355.85C132.41 355.174 137.823 357.203 142.558 360.586L139.852 355.85C137.823 353.144 133.087 352.468 129.028 352.468C128.351 352.468 126.998 352.468 126.322 352.468C125.645 352.468 124.969 353.144 123.616 353.144C119.557 354.497 115.497 356.527 114.144 359.233L113.468 361.263C116.85 358.556 121.586 356.527 126.322 355.85Z" fill="#CCCDCE"/>
<path d="M245.39 277.375C250.126 277.375 254.185 280.757 254.861 285.493C255.538 290.229 252.155 294.288 248.096 295.641L245.39 277.375Z" fill="#425863"/>
<path d="M248.772 289.552C250.802 288.875 253.508 287.522 254.185 284.816V285.493C254.861 290.228 251.479 294.287 247.419 295.641L246.743 289.552C247.419 290.228 248.096 289.552 248.772 289.552Z" fill="#425863"/>
<path d="M244.713 286.846C245.39 292.258 246.743 295.641 247.419 295.641C248.096 295.641 248.773 291.582 248.096 286.17C247.419 280.757 246.066 277.375 245.39 277.375C244.037 277.375 244.037 282.11 244.713 286.846Z" fill="#263841"/>
<path d="M246.743 278.051C246.743 278.051 254.185 279.404 254.185 287.522C254.185 287.522 254.185 281.433 246.743 278.051Z" fill="white"/>
<path d="M245.39 287.522C246.066 290.905 246.743 294.287 247.419 293.611C248.096 293.611 248.096 290.228 248.096 286.845C247.419 283.463 246.743 280.08 246.066 280.757C244.713 280.757 244.713 284.139 245.39 287.522Z" fill="#001018"/>
<path d="M245.39 283.463C246.066 283.463 246.743 284.816 246.743 287.523C246.743 289.552 246.743 291.582 246.066 291.582L242.007 292.258V284.14L245.39 283.463Z" fill="#454849"/>
<path opacity="0.6" d="M245.39 283.463C246.066 283.463 246.066 283.463 245.39 283.463C246.066 286.169 245.39 288.876 244.713 291.582H242.684L242.007 284.14L245.39 283.463Z" fill="#7A7C7E"/>
<path d="M201.416 284.139C198.033 284.815 196.004 288.198 196.004 291.581C196.68 294.963 199.386 297.669 202.769 297.669L201.416 284.139Z" fill="#425863"/>
<path d="M200.739 293.611C199.386 293.611 196.68 292.934 196.004 291.581V292.258C196.68 295.64 199.386 298.346 202.769 298.346L202.093 293.611C202.093 293.611 201.416 293.611 200.739 293.611Z" fill="#425863"/>
<path d="M203.446 291.581C204.122 295.64 203.446 298.346 202.769 299.022C202.092 299.022 201.416 296.316 200.739 292.257C200.063 288.198 200.739 285.492 201.416 284.816C202.092 284.139 202.769 287.522 203.446 291.581Z" fill="#263841"/>
<path d="M200.063 284.816C200.063 284.816 194.651 287.522 196.004 292.934C196.68 292.934 195.327 288.875 200.063 284.816Z" fill="white"/>
<path d="M203.446 291.581C204.122 294.287 203.446 296.316 202.769 296.316C202.092 296.316 201.416 294.287 201.416 291.581C200.739 288.875 201.416 286.845 202.092 286.845C202.092 286.845 202.769 288.875 203.446 291.581Z" fill="#001018"/>
<path d="M202.093 288.875C201.416 288.875 201.416 290.228 201.416 291.581C201.416 292.934 202.093 294.287 202.769 294.287L205.475 293.611L204.799 287.522L202.093 288.875Z" fill="#454849"/>
<path opacity="0.6" d="M202.092 288.874C202.092 290.904 202.769 292.934 204.122 294.287H206.152L205.475 288.198L202.092 288.874Z" fill="#7A7C7E"/>
<path d="M214.946 342.32C214.946 342.32 217.652 346.379 226.447 347.056C227.8 347.732 229.83 347.056 230.506 347.056C231.183 347.056 233.212 346.379 234.565 345.703C242.684 342.997 244.713 338.261 244.713 338.261C250.802 316.612 236.595 250.989 227.8 236.782C224.418 231.37 221.712 228.664 219.005 227.311C219.005 227.311 217.652 226.635 216.299 226.635C214.27 226.635 213.593 227.988 213.593 227.988C211.564 229.341 209.534 232.723 207.505 238.812C201.416 255.725 203.445 323.377 214.946 342.32ZM220.358 274.668C225.094 273.315 229.83 274.668 233.212 278.05C235.242 280.08 238.625 283.463 237.272 286.169C239.301 294.963 239.978 306.464 231.859 311.2C227.8 313.906 221.712 313.23 216.976 311.2C212.24 309.17 210.211 303.758 209.534 299.023C208.181 289.551 210.211 277.374 220.358 274.668Z" fill="#E0E1E2"/>
<path d="M234.565 255.049C240.654 275.345 246.743 305.788 246.066 325.407C242.684 324.054 238.625 322.025 237.272 318.642C235.918 315.259 235.242 312.553 235.242 309.171C239.978 303.758 239.301 293.611 237.272 286.845C237.948 283.463 235.242 280.757 233.212 278.727C231.859 277.374 230.506 276.698 229.153 276.021C229.153 273.991 229.153 272.638 229.153 270.609C229.83 263.844 231.859 259.108 234.565 255.049Z" fill="#696B6D"/>
<path d="M216.3 276.697C209.534 281.433 208.858 291.581 210.211 299.022C210.887 303.758 213.593 309.17 217.653 311.2C218.329 311.2 219.006 311.876 219.682 311.876C219.682 312.553 219.682 313.229 219.682 313.906C219.006 317.289 216.976 319.995 214.27 322.024C212.917 324.054 210.887 325.407 209.534 327.436C204.799 307.817 203.446 278.05 204.122 257.755C209.534 263.843 214.946 268.579 216.3 276.697Z" fill="#696B6D"/>
<path d="M214.946 342.32C214.946 342.32 216.976 345.026 223.741 346.379C221.711 338.937 220.358 330.819 219.682 323.377C219.005 317.289 221.711 315.259 227.8 315.259C233.212 315.259 236.595 311.876 238.625 307.817C239.978 305.788 239.978 303.758 242.684 302.405C244.037 301.729 244.713 302.405 245.39 303.082C244.037 293.61 242.684 284.139 240.654 274.668C239.978 276.021 238.625 277.374 235.918 276.697C233.889 276.021 231.859 274.668 229.83 273.991C227.124 272.638 224.418 273.315 222.388 271.962C219.005 269.932 219.005 265.196 218.329 262.49C216.976 256.401 215.623 250.313 214.946 243.548C214.946 240.842 214.27 233.4 217.652 232.047C219.682 230.694 221.711 230.694 223.741 231.37C222.388 230.017 221.035 229.341 220.358 229.341C220.358 229.341 219.005 228.664 217.652 228.664C215.623 228.664 214.946 230.017 214.946 230.017C212.917 231.37 210.887 234.753 208.858 240.841C201.416 255.725 203.445 323.377 214.946 342.32ZM220.358 274.668C225.094 273.315 229.83 274.668 233.212 278.05C235.242 280.08 238.625 283.462 237.271 286.168C239.301 294.963 239.978 306.464 231.859 311.2C227.8 313.906 221.711 313.229 216.976 311.2C212.24 309.17 210.211 303.758 209.534 299.022C208.181 289.551 210.211 277.374 220.358 274.668Z" fill="#CCCDCE"/>
<path d="M206.828 239.489C208.858 233.4 210.887 230.017 212.917 228.664C212.917 228.664 213.593 227.988 215.623 227.311C216.299 227.311 216.299 227.311 216.976 227.311C212.24 228.664 208.858 233.4 208.181 239.489C206.152 251.666 207.505 264.52 208.181 276.698C208.858 282.786 208.858 288.198 209.534 294.287C209.534 294.964 209.534 295.64 209.534 296.317C210.211 307.141 211.564 318.642 214.27 329.466C214.946 334.202 215.623 339.614 217.652 345.026C215.623 343.673 214.946 342.997 214.946 342.997C203.445 323.378 201.416 255.725 206.828 239.489Z" fill="#CCCDCE"/>
<path d="M202.092 288.875C203.446 281.433 208.858 282.11 212.917 283.463C216.299 284.816 220.359 284.139 222.388 283.463H223.741C225.771 283.463 229.83 282.786 232.536 280.757C235.919 278.05 241.331 276.697 244.713 283.463C247.42 290.228 244.037 303.758 227.124 306.464C226.447 306.464 226.447 306.464 225.771 306.464C225.094 306.464 225.094 306.464 224.418 306.464C208.181 307.817 201.416 295.64 202.092 288.875Z" fill="#E0E1E2"/>
<path d="M225.094 306.464C225.771 306.464 225.771 306.464 226.447 306.464C227.124 306.464 227.124 306.464 227.8 306.464C244.713 303.758 248.096 290.228 245.39 283.462C242.684 276.697 237.271 278.727 233.212 280.756C230.506 282.786 226.447 283.462 224.418 283.462H223.065C221.035 283.462 216.976 284.139 213.593 283.462C209.534 282.109 203.445 281.433 202.769 288.874C201.416 295.64 208.181 307.817 225.094 306.464ZM205.475 288.198C205.475 286.168 206.828 284.815 208.858 284.815C213.593 283.462 215.623 285.492 221.035 284.815C225.094 284.139 230.506 284.139 233.212 282.109C234.565 281.433 237.271 279.403 239.301 280.08C240.654 280.08 241.331 280.756 242.007 281.433C242.684 282.109 243.36 282.786 243.36 283.462C244.713 286.845 242.684 290.904 240.654 292.934C239.301 294.963 236.595 296.316 234.565 297.669C231.859 299.022 229.153 300.375 225.771 301.052C218.329 301.728 206.151 297.669 205.475 288.198Z" fill="#CCCDCE"/>
<path d="M221.712 231.37C221.712 231.37 226.447 235.43 230.506 246.93C234.566 258.431 237.948 274.668 237.948 274.668C237.948 274.668 232.536 271.962 231.183 261.137C229.83 250.99 227.124 238.136 221.712 231.37Z" fill="#CCCDCE"/>
<path d="M243.36 305.788C243.36 305.788 246.066 325.407 243.36 337.584C243.36 337.584 243.36 339.614 242.007 340.967C242.007 340.967 242.684 338.261 242.684 334.878C242.684 330.819 241.331 309.17 241.331 309.17C241.331 309.17 241.331 307.817 242.007 306.464C242.007 305.111 243.36 303.082 243.36 305.788Z" fill="#CCCDCE"/>
<path d="M244.037 291.582C244.037 292.258 244.037 292.258 244.037 291.582C244.713 292.258 244.713 291.582 244.713 291.582C244.713 291.582 244.713 290.905 244.037 291.582Z" fill="#696B6D"/>
<path d="M241.33 296.994C242.007 297.67 242.007 296.994 242.007 296.994C242.007 296.317 242.007 296.317 241.33 296.994Z" fill="#696B6D"/>
<path d="M237.272 301.053C237.948 301.73 237.948 301.053 237.948 301.053C237.948 300.377 237.948 300.377 237.272 301.053C237.272 300.377 237.272 300.377 237.272 301.053Z" fill="#696B6D"/>
<path d="M233.212 303.759C233.889 304.436 233.889 303.759 233.889 303.759C233.889 303.083 233.889 303.083 233.212 303.759C233.212 303.083 233.212 303.083 233.212 303.759Z" fill="#696B6D"/>
<path d="M227.8 305.112C228.477 305.788 228.477 305.112 228.477 305.112C228.477 305.112 228.477 304.435 227.8 305.112Z" fill="#696B6D"/>
<path d="M205.475 296.317C205.475 296.993 205.475 296.993 205.475 296.317C204.799 296.993 204.799 296.993 204.799 296.317C204.799 296.317 204.799 296.317 205.475 296.317Z" fill="#696B6D"/>
<path d="M209.534 301.053C208.858 301.729 208.858 301.729 208.858 301.053C208.858 301.053 208.858 300.376 209.534 301.053C209.534 300.376 209.534 300.376 209.534 301.053Z" fill="#696B6D"/>
<path d="M214.27 303.759C213.594 304.435 213.594 304.435 213.594 303.759C213.594 303.759 213.594 303.759 214.27 303.759Z" fill="#696B6D"/>
<path d="M219.006 305.112C219.006 305.788 219.006 305.788 219.006 305.112C218.329 305.788 218.329 305.788 218.329 305.112C218.329 305.112 218.329 305.112 219.006 305.112Z" fill="#696B6D"/>
<path d="M224.418 305.789C223.742 306.465 223.741 306.465 223.741 305.789C223.741 305.112 223.742 305.112 224.418 305.789C224.418 305.112 224.418 305.112 224.418 305.789Z" fill="#696B6D"/>
<path d="M213.593 343.673C215.623 346.379 219.682 345.703 223.065 344.35C225.094 343.673 228.477 342.997 230.507 342.997H231.183C232.536 342.997 235.919 342.32 238.625 342.997C242.007 343.673 246.067 343.673 247.42 340.29C248.773 336.908 244.037 332.172 230.507 333.525H229.83H229.153C215.623 334.878 212.24 340.967 213.593 343.673Z" fill="#696B6D"/>
<path d="M212.917 367.351L218.329 346.379C219.682 343.673 224.418 341.644 227.8 340.291C228.477 340.291 229.83 339.614 230.506 339.614C231.183 339.614 231.86 339.614 233.213 339.614C237.272 339.614 242.007 340.967 244.037 342.997L254.185 361.939C254.185 361.939 258.244 369.381 249.449 372.087L244.037 372.764L225.094 374.793L219.682 375.47C210.211 375.47 212.917 367.351 212.917 367.351Z" fill="#425863"/>
<path d="M223.065 353.821C222.388 351.115 221.035 347.056 219.005 345.026C221.035 342.996 225.094 340.967 227.8 339.614C228.477 339.614 229.83 338.937 230.506 338.937C231.183 338.937 231.859 338.937 233.212 338.937C236.595 338.937 241.331 340.29 243.36 342.32C242.007 342.996 241.331 345.026 240.654 347.732C239.301 355.85 239.301 364.645 239.978 373.44L227.8 374.793C226.447 368.028 225.094 360.586 223.065 353.821Z" fill="#E0E1E2"/>
<path d="M254.861 362.616C255.538 364.645 256.891 370.057 249.449 372.087L219.682 376.146C212.24 376.146 212.24 370.734 212.24 368.704L254.861 362.616Z" fill="#425863"/>
<path d="M231.183 342.997C225.094 343.673 220.359 347.732 216.976 351.791L218.329 346.379C219.682 343.673 224.418 341.644 227.8 340.291C228.477 340.291 229.83 339.614 230.506 339.614C231.183 339.614 231.859 339.614 233.212 339.614C237.272 339.614 242.007 340.967 244.037 342.997L245.39 345.026C240.654 342.997 235.242 342.32 231.183 342.997Z" fill="#CCCDCE"/>
<path d="M235.918 168.454C235.918 167.101 235.242 165.748 235.242 164.395C235.242 163.718 235.242 163.042 235.242 162.365C231.183 152.217 196.003 148.158 154.059 152.894C112.115 157.63 78.965 169.13 76.9354 179.955C76.9354 179.955 76.9354 180.631 76.9354 181.308C76.9354 184.014 77.612 186.044 77.612 188.75C84.3772 243.548 125.645 283.463 169.619 277.374C212.24 271.962 242.683 223.252 235.918 168.454Z" fill="#D7D0CD"/>
<path d="M229.153 214.457C220.359 218.517 211.564 222.576 202.092 225.958C183.15 232.724 163.531 236.783 143.235 238.136C126.998 238.812 108.732 238.812 92.4958 233.4C109.409 263.167 138.499 280.757 168.943 276.698C200.739 272.638 224.418 246.254 233.212 211.751C231.859 213.104 230.506 213.781 229.153 214.457Z" fill="#3A3C3F"/>
<path d="M235.242 164.395C235.242 163.718 235.242 163.042 235.242 162.365C231.183 152.217 196.003 148.158 154.059 152.894C112.115 157.63 78.965 169.13 76.9354 179.955C76.9354 179.955 76.9354 180.631 76.9354 181.308V181.984C80.318 187.397 84.3772 191.456 90.4659 194.162C98.5841 198.221 108.055 199.574 116.85 200.25C123.615 200.927 131.057 200.25 137.822 200.25C143.911 200.25 151.353 199.574 157.442 200.927C164.883 202.28 168.942 208.369 171.649 215.134C174.355 223.929 176.384 233.4 177.737 242.871C179.767 256.402 177.061 271.962 164.207 278.051C166.236 278.051 167.589 278.051 169.619 277.374C213.593 271.962 243.36 223.252 236.595 168.454C235.242 167.101 235.242 165.748 235.242 164.395Z" fill="#C3C4C6"/>
<path d="M235.242 164.395C235.242 163.718 235.242 163.042 235.242 162.365C231.183 152.217 196.003 148.158 154.059 152.894C112.115 157.63 78.965 169.13 76.9354 179.955C76.9354 179.955 76.9354 180.631 76.9354 181.308V181.984C77.6119 182.661 77.6119 183.337 78.2885 183.337C80.9946 186.044 83.7007 188.073 87.0833 189.426C93.8485 192.132 101.967 193.485 109.409 194.162C120.909 195.515 131.734 196.191 142.558 195.515C152.706 194.838 162.854 192.132 173.002 190.103C178.414 188.75 183.826 188.073 188.562 188.073C191.944 188.073 196.003 188.073 198.709 189.426C204.122 192.132 206.828 196.868 208.181 202.28C209.534 208.369 210.21 214.457 210.887 221.223C211.563 230.694 211.563 240.842 208.857 250.313C207.504 253.696 206.151 257.078 204.122 260.461C226.447 240.842 239.301 205.663 234.565 168.454C235.242 167.101 235.242 165.748 235.242 164.395Z" fill="#C3C4C6"/>
<path opacity="0.8" d="M139.176 39.9149C95.2017 45.3271 65.4347 94.0368 72.2 148.835C72.2 151.541 72.8765 153.571 73.553 156.277C73.553 156.953 74.2295 157.63 74.2295 157.63C78.2887 167.101 114.144 170.484 155.412 164.395C197.357 158.306 230.506 145.452 231.859 135.305C231.859 134.628 231.859 133.952 231.859 133.275C231.859 131.922 231.859 130.569 231.183 129.216C223.741 74.4176 182.473 34.5028 139.176 39.9149Z" fill="#C2C4C6"/>
<path d="M185.856 51.4156C189.238 58.1809 191.944 64.9461 193.297 72.3878C195.327 84.5652 197.357 103.508 186.532 112.303C181.12 116.362 175.031 118.391 168.943 119.068C158.795 121.097 147.97 122.451 137.146 123.127C129.028 123.804 120.233 125.157 111.438 125.157C104.673 125.157 97.2312 125.157 91.819 121.774C79.6416 114.332 78.2886 98.0957 81.6712 85.9183C82.3477 84.5652 82.3477 83.2122 83.0242 81.8592C73.5529 100.802 68.8173 123.804 72.1999 148.158C72.1999 150.864 72.8764 152.894 73.5529 155.6C73.5529 156.277 74.2295 156.953 74.2295 156.953C78.2886 166.424 114.144 169.807 155.412 163.718C197.357 157.63 230.506 144.776 231.859 134.628C231.859 133.951 231.859 133.275 231.859 132.598C231.859 131.245 231.859 129.892 231.183 128.539C226.447 94.7131 208.857 66.9757 185.856 51.4156Z" fill="#C9CACC"/>
<path d="M220.358 138.688C209.534 147.483 188.562 155.601 164.207 159.66C135.116 164.396 90.4658 165.072 80.318 154.925L72.8763 156.278L76.2589 179.956V180.632C77.6119 191.457 114.144 194.839 158.118 188.751C202.092 182.662 235.918 169.131 234.565 158.307V157.631L231.183 133.952L225.094 134.629C223.741 135.982 222.388 137.335 220.358 138.688Z" fill="#176D80"/>
<path d="M220.358 138.011C209.534 146.806 187.885 154.925 164.207 158.984C135.116 163.719 90.4658 164.396 80.318 154.248L72.8763 156.278L75.5823 179.279V179.956C76.9354 190.78 113.468 194.163 157.442 188.074C201.416 181.985 235.242 168.455 233.889 157.631V156.954L230.506 133.276L224.417 133.952C223.741 135.305 221.711 136.658 220.358 138.011Z" fill="#255E85"/>
<path d="M152.706 190.78C132.41 193.486 113.468 193.486 99.2606 192.133C88.4363 190.78 75.5823 188.074 74.9058 180.632V179.956L72.1997 156.954C72.1997 156.277 72.1997 155.601 72.8762 155.601L80.318 153.571C80.9945 153.571 80.9945 153.571 81.671 153.571C89.7893 161.689 126.322 162.366 156.089 158.983C158.795 158.307 161.501 158.307 164.207 157.63C187.885 153.571 208.857 146.129 219.682 137.335C221.035 135.982 222.388 134.629 223.741 133.276L224.417 132.599L230.506 131.922C231.183 131.922 231.183 131.922 231.183 131.922L231.859 132.599L235.242 156.277V156.954C237.271 169.808 197.356 183.338 158.118 189.427C156.089 190.103 154.735 190.78 152.706 190.78ZM76.9354 179.279V179.956V180.632C78.2884 188.75 107.379 194.163 152.029 188.75C154.059 188.75 155.412 188.074 157.442 188.074C204.122 181.309 233.889 167.778 232.536 158.983V158.307L229.153 135.982H225.094C223.741 137.335 222.388 138.688 221.035 140.041C209.534 149.512 188.562 156.954 164.207 161.013C161.501 161.689 158.795 161.689 156.089 162.366C132.41 165.072 91.1423 166.425 79.6415 156.954L74.2293 158.307L76.9354 179.279Z" fill="#2A667F"/>
<path d="M225.094 169.131L221.035 138.011C221.035 138.011 220.358 138.011 220.358 138.688C219.682 139.364 219.005 139.364 219.005 140.041L223.064 170.484C223.741 169.808 224.417 169.808 225.094 169.131Z" fill="#176D80"/>
<path d="M212.917 175.22L208.857 146.13C208.181 146.806 207.504 146.806 206.828 147.483L210.887 176.573C211.563 175.897 212.24 175.22 212.917 175.22Z" fill="#176D80"/>
<path d="M199.386 179.956L195.327 151.542C194.651 151.542 193.974 152.219 192.621 152.219L196.68 180.633C197.357 180.633 198.71 179.956 199.386 179.956Z" fill="#176D80"/>
<path d="M186.532 183.339L182.473 155.601C181.797 155.601 181.12 156.278 179.767 156.278L183.826 184.015C185.179 184.015 185.856 183.339 186.532 183.339Z" fill="#176D80"/>
<path d="M172.325 186.721L168.266 158.984C167.589 158.984 166.913 158.984 165.56 159.66L169.619 187.397C170.972 186.721 171.649 186.721 172.325 186.721Z" fill="#176D80"/>
<path d="M158.118 188.75C158.795 188.75 159.471 188.75 159.471 188.75L155.412 161.013C154.736 161.013 154.059 161.013 152.706 161.013L156.765 188.75C157.442 188.75 157.442 188.75 158.118 188.75Z" fill="#176D80"/>
<path d="M145.264 190.104L141.205 161.69C140.529 161.69 139.852 161.69 138.499 161.69L142.558 190.104C143.911 190.78 144.588 190.104 145.264 190.104Z" fill="#176D80"/>
<path d="M132.41 191.457L128.351 162.366C127.675 162.366 126.998 162.366 125.645 162.366L129.704 191.457C130.381 191.457 131.734 191.457 132.41 191.457Z" fill="#176D80"/>
<path d="M116.174 192.133L112.115 163.043C111.438 163.043 110.762 163.043 109.408 163.043L113.468 192.133C114.821 191.457 115.497 192.133 116.174 192.133Z" fill="#176D80"/>
<path d="M101.29 190.781L97.2313 161.014C96.5548 161.014 95.2017 161.014 94.5252 160.337L98.5843 190.781C99.2609 190.781 99.9374 190.781 101.29 190.781Z" fill="#176D80"/>
<path d="M80.3182 154.925L84.3773 187.398C85.0538 187.398 85.7304 188.074 87.0834 188.074L82.3477 156.278C81.6712 156.278 80.9947 155.601 80.3182 154.925Z" fill="#176D80"/>
<path opacity="0.5" d="M93.1719 168.455C104.673 170.485 118.203 170.485 133.087 169.808C144.588 169.132 154.735 167.102 166.236 165.749C173.678 164.396 183.826 163.72 188.562 165.749C197.356 169.808 195.327 177.927 181.12 183.339C175.708 185.368 169.619 187.398 163.53 188.751C204.798 181.986 235.918 169.132 234.565 158.984V158.307L231.183 134.629L225.094 135.306C223.741 136.659 222.388 138.012 221.035 139.365C210.21 148.16 189.238 156.278 164.883 160.337C135.793 165.073 91.1424 165.749 80.9945 155.601L72.8763 156.278L73.5528 162.367C77.6119 165.073 85.0537 167.102 93.1719 168.455Z" fill="#7D7E81"/>
<path opacity="0.5" d="M101.967 138.688C94.5249 142.07 89.1127 145.453 85.0536 148.835C83.024 150.865 82.3475 152.895 84.3771 154.248H83.024C85.7301 156.277 89.7893 158.307 95.878 159.66C103.996 151.542 124.292 144.776 145.941 141.394C161.501 138.688 183.149 135.305 196.003 138.011C202.092 139.364 205.475 141.394 209.534 143.423C210.21 143.423 210.887 144.1 211.563 144.776C214.946 142.747 217.652 140.717 220.358 138.688C221.711 137.335 223.064 135.981 224.417 133.952V133.275C223.741 130.569 218.329 128.54 212.916 127.187C199.386 123.804 179.767 124.481 160.824 126.51C139.852 127.863 117.527 131.922 101.967 138.688Z" fill="#7D7E81"/>
<path d="M72.8763 156.277C74.2293 167.102 110.762 170.484 154.736 164.395C198.709 158.307 232.536 144.776 231.183 133.952C229.83 123.128 193.297 119.745 149.323 125.834C105.349 131.246 70.8467 145.453 72.8763 156.277ZM208.857 135.305C210.21 142.747 186.532 152.218 156.089 156.277C125.645 160.336 100.614 158.307 99.2607 150.865C97.9076 143.423 121.586 133.952 152.029 129.893C182.473 125.157 207.504 127.863 208.857 135.305Z" fill="#A7A9AC"/>
<path d="M149.323 165.748C112.791 170.484 73.5529 168.454 72.1998 156.277C70.1703 143.423 110.085 129.892 149.323 124.48C151.353 124.48 152.706 123.804 154.736 123.804C191.268 119.068 230.506 121.098 231.859 133.275C233.889 146.129 193.974 159.659 154.736 165.072C152.706 165.748 150.676 165.748 149.323 165.748ZM154.736 125.833C152.706 125.833 151.353 126.51 149.323 126.51C106.702 132.599 72.1998 146.129 73.5529 156.277C74.9059 165.748 108.732 169.807 149.323 164.395C151.353 164.395 152.706 163.719 154.736 163.719C197.356 157.63 231.859 144.099 230.506 133.952C228.477 124.48 194.65 120.421 154.736 125.833ZM150.676 157.63C118.88 161.689 84.3772 161.013 83.0242 152.218C81.6711 143.423 116.85 133.275 150.676 127.863C152.029 127.863 154.059 127.186 155.412 127.186C187.209 123.127 221.711 123.804 223.064 132.599C224.417 141.393 189.915 151.541 155.412 156.953C154.059 157.63 152.029 157.63 150.676 157.63Z" fill="#384865"/>
<path d="M78.2883 182.661C78.2883 182.661 94.5249 197.545 159.471 187.397C159.471 188.074 103.996 195.515 78.2883 182.661Z" fill="#7D7E81"/>
<path d="M74.2296 154.924C74.2296 154.924 72.8766 167.101 116.851 167.101C160.825 167.101 223.065 151.541 227.8 137.334C227.8 137.334 216.299 148.835 183.15 157.63C145.941 167.101 86.407 171.837 74.2296 154.924Z" fill="#939598"/>
<path d="M82.3476 194.838C82.3476 194.838 90.4659 240.165 116.85 259.108C116.85 259.108 131.057 271.285 147.97 273.992C147.97 273.992 121.586 263.844 109.409 245.578C97.9076 227.311 93.8485 201.604 93.8485 201.604L82.3476 194.838Z" fill="#EBEBEC"/>
<mask id="mask0_324_581" style="mask-type:luminance" maskUnits="userSpaceOnUse" x="105" y="44" width="87" height="117">
<path d="M178.414 127.862C176.384 123.803 174.355 120.42 176.384 115.685C178.414 109.596 177.737 102.831 176.384 96.0655C174.355 89.3003 172.325 82.5351 170.296 75.7698C168.943 70.3576 171.649 66.2985 171.649 61.5629C171.649 52.0916 166.913 46.0028 157.442 44.6498C150 43.2968 141.882 44.6498 134.44 46.0029C124.969 48.0324 115.497 52.0916 110.085 60.2098C103.996 69.6812 104.673 81.182 107.379 92.0064C108.732 98.0951 110.762 104.184 113.468 109.596C116.85 115.685 121.586 119.744 126.322 124.479C126.322 124.479 126.998 125.156 126.322 125.833C118.203 134.627 110.762 147.481 110.085 160.335C122.263 161.012 137.146 160.335 154.736 157.629C168.266 155.599 181.12 153.57 191.268 150.187C186.532 142.746 182.473 135.304 178.414 127.862Z" fill="white"/>
</mask>
<g mask="url(#mask0_324_581)">
<path d="M118.88 174.542C116.851 174.542 115.498 173.189 115.498 171.836C113.468 142.745 137.823 123.803 138.499 123.126C139.852 122.449 141.882 122.449 142.558 123.803C143.235 125.156 143.235 127.185 141.882 127.862C141.882 127.862 119.557 145.451 120.91 171.836C121.586 172.512 120.233 173.865 118.88 174.542Z" fill="#B5D35B"/>
<path d="M118.88 174.542C116.851 174.542 115.498 173.189 115.498 171.836C113.468 142.745 137.823 123.803 138.499 123.126C139.852 122.449 141.882 122.449 142.558 123.803C143.235 125.156 143.235 127.185 141.882 127.862C141.882 127.862 119.557 145.451 120.91 171.836C121.586 172.512 120.233 173.865 118.88 174.542Z" fill="#B5D35B"/>
<path d="M118.88 174.542C116.851 174.542 115.498 173.189 115.498 171.836C113.468 142.745 137.823 123.803 138.499 123.126C139.852 122.449 141.882 122.449 142.558 123.803C143.235 125.156 143.235 127.185 141.882 127.862C141.882 127.862 119.557 145.451 120.91 171.836C121.586 172.512 120.233 173.865 118.88 174.542Z" fill="#B5D35B"/>
<path opacity="0.5" d="M142.558 123.126C141.882 121.773 139.852 121.773 138.499 122.45C138.499 122.45 137.823 123.126 136.47 123.803C137.146 126.509 135.116 129.215 133.763 131.245C130.381 135.98 126.998 139.363 124.292 144.775C120.91 150.864 118.88 157.629 118.203 165.071C118.203 166.424 118.203 169.13 116.174 169.13C115.497 169.13 115.497 169.13 114.821 169.13C114.821 169.806 114.821 170.483 114.821 171.159C114.821 172.513 116.174 173.866 118.203 173.866C119.556 173.866 120.91 172.513 120.91 170.483C119.556 144.099 141.205 127.186 141.882 126.509C143.235 126.509 143.911 124.479 142.558 123.126Z" fill="#7EB05F"/>
<path d="M187.886 165.747C186.533 165.747 185.179 165.07 184.503 163.041C179.767 137.333 154.059 125.832 153.383 125.832C152.03 125.156 151.353 123.126 152.03 121.773C152.706 120.42 154.736 119.743 156.089 120.42C157.442 121.096 185.179 133.274 190.592 162.364C190.592 163.717 189.915 165.747 187.886 165.747Z" fill="#B5D35B"/>
<path d="M187.886 165.747C186.533 165.747 185.179 165.07 184.503 163.041C179.767 137.333 154.059 125.832 153.383 125.832C152.03 125.156 151.353 123.126 152.03 121.773C152.706 120.42 154.736 119.743 156.089 120.42C157.442 121.096 185.179 133.274 190.592 162.364C190.592 163.717 189.915 165.747 187.886 165.747Z" fill="#B5D35B"/>
<path opacity="0.5" d="M186.532 158.982C185.179 156.276 184.503 153.57 183.15 150.863C181.797 148.157 179.767 144.775 177.737 142.069C173.678 137.333 168.943 133.274 164.207 129.215C161.501 127.185 158.795 125.156 159.471 121.773C157.442 121.096 156.765 120.42 156.765 120.42C155.412 119.743 153.383 120.42 152.706 121.773C152.03 123.126 152.706 125.156 154.059 125.832C154.059 125.832 179.767 137.333 185.179 163.041C185.179 164.394 187.209 165.747 188.562 165.747C189.915 165.747 191.268 163.717 191.268 162.364C191.268 161.688 191.268 161.688 191.268 161.011C188.562 161.011 187.209 160.335 186.532 158.982Z" fill="#7EB05F"/>
<path d="M175.708 159.659C175.031 154.923 173.002 150.864 170.972 146.805C168.266 142.745 165.56 138.686 162.854 134.627C159.471 130.568 156.765 125.832 155.412 121.097C154.736 117.714 154.736 112.979 152.03 110.949C150 108.919 145.941 108.919 143.235 109.596C139.852 110.272 137.823 112.302 137.823 116.361C137.823 120.42 139.176 124.479 138.499 128.539C136.47 141.392 128.351 153.57 128.351 166.424C128.351 174.542 133.087 181.307 141.205 184.013C147.971 186.043 155.412 185.366 161.501 182.66C166.913 180.631 172.325 175.895 174.355 170.483C176.384 167.1 175.708 163.041 175.708 159.659Z" fill="#B5D35B"/>
<path opacity="0.3" d="M170.296 146.805C167.59 142.745 164.884 138.686 162.178 134.627C158.795 130.568 156.089 125.832 154.736 121.097C154.059 117.714 154.059 112.979 151.353 110.949C149.324 108.919 145.264 108.919 142.558 109.596C139.176 110.272 137.146 112.302 137.146 116.361C137.146 120.42 138.499 124.479 137.823 128.539C135.793 141.392 127.675 153.57 127.675 166.424C127.675 174.542 132.411 181.307 140.529 184.013C147.294 186.043 154.736 185.366 160.825 182.66C166.237 180.631 171.649 175.895 173.678 170.483C175.031 167.1 175.031 163.041 174.355 158.982C175.031 154.923 173.002 150.187 170.296 146.805ZM162.178 171.159C156.765 175.219 149.324 176.572 142.558 174.542C136.47 172.512 132.411 167.1 132.411 160.335C132.411 156.276 133.087 152.217 134.44 148.834C136.47 143.422 141.882 140.039 147.294 139.363C152.706 138.686 159.471 140.716 163.531 144.775C165.56 146.805 168.266 150.187 168.943 152.893C170.296 160.335 167.59 167.1 162.178 171.159Z" fill="#7EB05F"/>
<path opacity="0.5" d="M137.146 133.274C139.176 130.568 141.882 128.538 145.941 127.185C152.03 125.832 156.765 129.215 160.825 132.597C158.118 129.215 155.412 125.156 154.736 120.42C154.059 117.037 154.059 112.302 151.353 110.272C149.324 108.242 145.265 108.243 142.558 108.919C139.176 109.596 137.146 111.625 137.146 115.684C137.146 119.743 138.499 123.803 137.823 127.862C137.823 129.891 137.823 131.244 137.146 133.274Z" fill="#7EB05F"/>
<path opacity="0.5" d="M138.499 123.802C142.558 125.832 147.971 125.156 152.03 123.802C153.383 123.126 154.736 123.126 155.412 122.449C155.412 121.773 155.412 121.096 154.736 120.42C154.059 117.037 154.059 112.302 151.353 110.272C149.324 108.242 145.265 108.243 142.558 108.919C139.176 109.596 137.146 111.625 137.146 115.684C137.823 118.39 137.823 121.096 138.499 123.802Z" fill="#7EB05F"/>
<path opacity="0.5" d="M173.678 152.893C175.031 157.629 175.031 163.041 173.002 167.777C169.619 175.219 162.177 178.601 154.736 179.954C147.971 180.631 139.852 179.954 135.117 175.219C131.057 170.483 129.704 165.071 129.028 158.982C128.351 161.688 128.351 164.394 128.351 167.1C128.351 175.219 133.087 181.984 141.205 184.69C147.971 186.719 155.412 186.043 161.501 183.337C166.913 181.307 172.325 176.572 174.355 171.159C175.708 167.777 175.708 163.718 175.031 159.659C175.031 156.952 174.355 154.923 173.678 152.893Z" fill="#7EB05F"/>
<path d="M160.824 69.0042C160.148 68.3276 158.795 67.6511 157.442 66.9746C158.795 64.2685 160.824 60.2094 160.824 60.2094L158.795 57.5033L154.736 66.2981C145.941 63.592 131.734 65.6216 123.616 70.3572L116.85 62.9154L115.497 66.2981C115.497 66.2981 118.88 70.3572 120.91 72.3868C120.233 73.0633 119.557 73.7398 118.88 74.4164C118.88 74.4164 111.438 86.5937 116.174 102.83C120.233 115.684 130.381 121.096 139.176 121.773C143.235 122.449 147.294 121.773 151.353 120.42C160.148 117.714 168.266 110.272 168.943 96.7416C170.972 79.152 160.824 69.0042 160.824 69.0042Z" fill="#B5D35B"/>
<path opacity="0.5" d="M160.824 69.0042C160.148 68.3276 158.795 67.6511 157.442 66.9746C158.795 64.2685 160.824 60.2094 160.824 60.2094L158.795 57.5033L154.736 66.2981C145.941 63.592 131.734 65.6216 123.616 70.3572L116.85 62.9154L115.497 66.2981C115.497 66.2981 118.88 70.3572 120.91 72.3868C120.233 73.0633 119.557 73.7398 118.88 74.4164C118.88 74.4164 111.438 86.5937 116.174 102.83C120.233 115.684 130.381 121.096 139.176 121.773C143.235 122.449 147.294 121.773 151.353 120.42C160.148 117.714 168.266 110.272 168.943 96.7416C170.972 79.152 160.824 69.0042 160.824 69.0042ZM165.56 97.4181C162.854 106.889 154.059 117.037 141.882 116.361C137.823 116.361 133.087 115.008 129.704 112.978C123.616 108.919 118.88 102.83 118.203 96.7416C116.85 89.2998 117.527 81.1816 123.616 75.0929C124.969 73.7398 126.998 72.3868 129.028 71.0337C134.44 68.3277 141.882 66.9746 147.97 69.0042C154.736 70.3572 160.148 74.4163 163.53 79.8285C166.913 85.2407 167.59 91.3294 165.56 97.4181Z" fill="#7EB05F"/>
<path opacity="0.5" d="M169.619 96.7416C168.943 100.801 167.59 104.86 164.884 107.566C159.472 114.331 150.677 119.067 141.882 119.067C134.44 119.067 126.998 115.684 122.263 108.919C118.88 104.183 116.851 99.4477 115.498 94.0355C115.498 96.7416 116.174 99.4477 117.527 102.83C121.586 115.684 131.734 121.096 140.529 121.773C144.588 122.449 148.647 121.773 152.706 120.42C160.825 117.037 168.943 109.596 169.619 96.7416C169.619 96.065 169.619 96.0651 169.619 96.0651V96.7416Z" fill="#7EB05F"/>
<path opacity="0.5" d="M138.499 100.801C138.499 100.801 143.235 96.0655 137.146 87.2707C131.057 77.7994 118.204 78.4759 120.91 92.0064C124.292 104.184 135.793 104.184 138.499 100.801Z" fill="#7EB05F"/>
<path d="M138.499 100.125C138.499 100.125 143.235 96.066 137.146 87.2712C131.057 78.4764 118.203 79.1529 121.586 91.3303C124.292 103.508 135.116 102.831 138.499 100.125Z" fill="#00233D"/>
<path d="M133.763 96.0654C133.763 96.0654 137.146 93.3594 133.087 87.2706C129.028 81.8585 120.233 81.8585 122.263 90.6533C124.292 98.7715 131.734 98.095 133.763 96.0654Z" fill="#0D5076"/>
<path d="M125.645 90.6534C125.645 90.6534 126.998 89.9769 126.322 87.9473C125.645 85.9177 123.616 85.2412 122.939 87.9473C122.939 89.9769 124.969 90.6534 125.645 90.6534Z" fill="#007B96"/>
<path opacity="0.5" d="M148.647 99.4482C148.647 99.4482 142.558 96.0655 146.618 85.9177C150.677 75.0933 162.854 73.0638 163.531 85.9177C163.531 99.4482 152.706 102.154 148.647 99.4482Z" fill="#7EB05F"/>
<path d="M148.647 98.7715C148.647 98.7715 143.235 95.3888 146.617 85.9175C150.677 75.7697 162.854 73.7401 162.854 85.9175C163.53 98.0949 152.706 100.801 148.647 98.7715Z" fill="#00233D"/>
<path d="M152.03 94.0358C152.03 94.0358 147.971 92.0062 150.677 85.241C153.383 78.4758 161.501 77.1227 161.501 85.241C162.178 94.0358 154.736 95.3889 152.03 94.0358Z" fill="#0D5076"/>
<path d="M152.706 87.2701C152.706 87.2701 151.353 87.2701 151.353 85.2405C151.353 83.2109 153.383 81.8579 154.059 84.564C155.412 85.917 154.059 87.2701 152.706 87.2701Z" fill="#007B96"/>
<path d="M164.207 56.8266C164.207 58.8562 162.854 60.8857 160.824 60.8857C158.795 60.8857 156.765 59.5327 156.765 57.5031C156.765 55.4735 158.118 53.444 160.148 53.444C162.177 53.444 164.207 54.797 164.207 56.8266Z" fill="#7EB05F"/>
<path d="M161.501 56.1499C161.501 57.5029 160.824 58.1795 159.471 58.1795C158.118 58.1795 157.442 57.5029 157.442 56.1499C157.442 54.7969 158.118 54.1204 159.471 54.1204C160.824 54.1204 161.501 54.7969 161.501 56.1499Z" fill="#7EB05F"/>
<path d="M118.88 62.2393C118.88 64.2689 117.527 66.2984 115.498 66.2984C113.468 66.2984 111.438 64.9454 111.438 62.9158C111.438 60.8862 112.791 58.8567 114.821 58.8567C116.851 58.8567 118.88 60.2097 118.88 62.2393Z" fill="#7EB05F"/>
<path d="M116.174 61.5621C116.174 62.9151 115.497 63.5916 114.144 63.5916C112.791 63.5916 112.115 62.9151 112.115 61.5621C112.115 60.209 112.791 59.5325 114.144 59.5325C115.497 60.209 116.174 60.8855 116.174 61.5621Z" fill="#7EB05F"/>
<path d="M129.028 71.0339C129.028 71.0339 114.144 78.4757 118.88 98.0948C118.88 98.0948 115.497 81.1818 129.028 71.0339Z" fill="#CFDD57"/>
<path d="M139.852 144.099C139.852 144.099 131.057 151.541 134.44 165.748C134.44 165.748 132.41 144.775 153.383 141.393C153.383 141.393 146.617 138.687 139.852 144.099Z" fill="#7EB05F"/>
<path d="M135.117 126.509C135.117 126.509 134.44 127.185 133.764 127.862C133.087 128.538 131.734 129.891 130.381 131.921C129.705 132.598 129.028 133.951 128.352 134.627C127.675 135.304 126.998 136.657 126.322 138.01C125.645 139.363 124.969 140.039 124.292 141.392C123.616 142.745 122.939 144.098 122.263 145.451C121.586 146.804 120.91 148.158 120.233 149.511C120.233 150.187 119.557 150.864 119.557 151.54C119.557 152.217 118.88 152.893 118.88 153.57C118.88 154.246 118.204 154.923 118.204 155.599C118.204 156.276 117.527 156.952 117.527 157.629C117.527 158.305 117.527 158.982 116.851 159.658C116.851 160.335 116.851 161.011 116.174 161.011C116.174 162.364 115.498 163.041 115.498 163.718C115.498 163.041 115.498 161.688 116.174 161.011C116.174 160.335 116.174 159.658 116.174 159.658C116.174 158.982 116.174 158.305 116.851 157.629C116.851 156.276 117.527 154.923 118.204 153.57C118.204 152.893 118.88 152.217 118.88 151.54C118.88 150.864 119.557 150.187 119.557 149.511C120.233 148.158 120.91 146.804 121.586 145.451C122.263 144.098 122.939 142.745 123.616 141.392C124.292 140.039 124.969 138.686 125.645 138.01C126.998 135.98 128.352 133.951 129.705 131.921C131.058 130.568 132.411 129.215 133.087 127.862C134.44 126.509 135.117 126.509 135.117 126.509Z" fill="white"/>
<path d="M160.825 125.155C160.825 125.155 161.501 125.155 162.854 125.832C164.207 126.508 165.56 127.185 166.913 128.538C167.59 129.214 168.943 129.891 169.619 130.567C170.296 131.244 171.649 131.92 172.326 133.273C174.355 135.303 176.385 137.332 178.414 139.362C179.091 140.039 179.091 140.715 179.767 140.715C180.444 141.392 180.444 142.068 181.12 142.745C181.797 144.098 182.473 144.774 183.15 146.127C183.826 147.48 184.503 148.157 185.179 149.51C185.856 150.863 186.533 151.539 186.533 152.892C187.209 153.569 187.209 154.922 187.886 155.599C187.886 156.275 188.562 156.952 188.562 157.628C188.562 158.981 189.239 159.658 189.239 159.658C189.239 159.658 189.239 158.981 188.562 157.628C188.562 156.952 187.886 156.275 187.886 155.599C187.886 154.922 187.209 153.569 186.533 152.892C185.856 152.216 185.856 150.863 185.179 149.51C184.503 148.157 183.826 147.48 183.15 146.127C182.473 144.774 181.797 144.098 181.12 142.745C180.444 141.392 179.091 140.715 178.414 139.362C176.385 137.332 174.355 135.303 172.326 133.273C170.296 131.244 168.266 129.891 166.913 128.538C164.884 127.185 163.531 125.832 162.854 125.155C161.501 125.155 160.825 125.155 160.825 125.155Z" fill="white"/>
</g>
<path d="M139.176 39.9149C95.2017 45.3271 65.4347 94.0368 72.2 148.835C72.2 151.541 72.8765 153.571 73.553 156.277C73.553 156.953 74.2295 157.63 74.2295 157.63C78.2887 167.101 114.144 170.484 155.412 164.395C197.357 158.306 230.506 145.452 231.859 135.305C231.859 134.628 231.859 133.952 231.859 133.275C231.859 131.922 231.859 130.569 231.183 129.216C223.741 74.4176 182.473 34.5028 139.176 39.9149ZM201.416 130.569C193.974 145.452 171.649 150.865 154.736 153.571C135.793 156.277 113.468 156.953 96.5548 148.835C89.113 145.452 82.3478 140.04 79.6417 132.599C77.6121 127.186 77.6121 121.774 78.2887 117.038C77.6121 104.185 82.3478 90.6541 88.4365 79.8298C95.8782 66.9758 107.379 56.828 120.91 50.7393C133.087 45.3271 147.97 41.268 161.501 46.0037H162.177C162.854 46.0037 163.531 46.6802 164.207 46.6802C181.12 53.4454 191.268 69.0054 197.357 83.2124C203.445 97.4193 208.858 115.685 201.416 130.569Z" fill="#C9CACC"/>
<path opacity="0.9" d="M81.6711 115.686C80.9945 119.745 80.9945 124.481 80.318 129.217C80.318 129.217 85.0537 139.365 94.525 144.1C94.525 144.1 93.8485 136.658 93.8485 125.834C89.7893 123.128 85.7302 119.745 81.6711 115.686Z" fill="white"/>
<path opacity="0.9" d="M83.024 107.568C87.0831 110.274 90.4657 112.304 94.5249 115.01C96.5544 96.0675 101.967 71.0361 118.203 52.77C118.88 52.77 91.8188 66.3005 83.024 107.568Z" fill="white"/>
</svg>
