<svg width="154" height="102" viewBox="0 0 154 102" fill="none" xmlns="http://www.w3.org/2000/svg">
<path d="M152.625 74.0844C138.165 78.6762 81.8 96.3873 59.6671 101.635C58.9294 101.854 58.044 101.635 57.4538 101.307C52.5846 98.0273 31.3371 83.3773 22.779 76.4896C21.5986 75.615 22.1888 74.0844 23.6643 73.7564C38.1245 70.1485 95.5224 55.7172 110.72 52C111.31 51.8907 112.048 51.8907 112.491 52.1094C117.508 54.1866 142.149 64.7914 152.92 71.1325C154.543 72.0071 154.248 73.6471 152.625 74.0844Z" fill="#AFAFAE"/>
<path d="M107.917 47.0804C106.441 40.958 101.425 20.4043 95.5226 1.92776C95.0799 0.615821 93.3093 -0.258819 91.5387 0.0691662C77.2261 2.25573 18.9429 11.002 2.26946 15.2658C0.646385 15.7031 -0.238922 16.9057 0.0561829 18.1083C2.41702 26.5266 11.4177 58.1225 17.6149 69.8206C18.2051 71.0233 20.1233 71.6792 21.7464 71.2419C35.1737 68.0714 92.1289 54.4053 105.851 49.8136C107.474 49.2669 108.212 48.1736 107.917 47.0804Z" fill="#AFAFAE"/>
<path d="M152.625 72.0075C138.165 76.5992 81.8 94.3104 59.6671 99.5582C58.9294 99.7768 58.044 99.5582 57.4538 99.2302C52.5846 95.9504 31.3371 81.3004 22.779 74.4127C21.5986 73.538 22.1888 72.0074 23.6643 71.6795C38.1245 68.0716 95.5224 53.6403 110.72 49.9231C111.31 49.8138 112.048 49.8138 112.491 50.0325C117.508 52.1097 142.149 62.7145 152.92 69.0556C154.543 69.9302 154.248 71.4608 152.625 72.0075Z" fill="white"/>
<path d="M111.163 48.0642C109.687 41.9419 104.671 21.3881 98.7685 2.91163C98.3259 1.59969 96.5552 0.725069 94.7846 1.05305C80.472 3.23962 22.1889 11.9859 5.51544 16.2497C3.89236 16.687 3.00706 17.8896 3.30215 19.0922C5.66299 27.5105 14.6637 59.1064 20.8609 70.8045C21.4511 72.0071 23.3693 72.6631 24.9923 72.2258C38.4196 69.0553 95.3748 55.3892 109.097 50.7975C110.573 50.2508 111.458 49.1575 111.163 48.0642Z" fill="white"/>
<path d="M7.87617 20.4039C8.46638 22.6998 9.64683 26.9636 11.2699 31.9927C12.7454 36.9125 14.516 42.4882 16.2867 47.9546C16.7293 49.4852 17.3195 51.0158 17.7622 52.4371C19.9755 58.5595 22.0412 64.1352 23.9594 67.743C24.5496 68.8363 26.1727 69.4923 27.7957 69.055C31.0419 68.2897 36.944 66.8684 44.1741 65.1192C46.3874 64.5725 48.6007 64.0259 51.109 63.4792C57.6014 61.8393 64.8314 60.0901 71.7664 58.3408C81.7999 55.8262 91.2433 53.421 98.0307 51.4531C100.834 50.6878 103.195 49.9225 104.966 49.3759C106.294 48.9386 106.884 47.9546 106.736 46.8613C106.146 44.1281 104.671 38.443 102.9 31.3367C102.457 29.3688 101.867 27.2915 101.277 25.2143C99.5062 18.9826 97.588 12.0949 95.5223 5.42589C95.0796 4.22328 93.6041 3.45798 91.9811 3.67663C87.1118 4.44193 76.7832 5.97253 64.6839 7.83111C61.4377 8.37776 58.044 8.9244 54.6503 9.47104C42.6986 11.4389 30.1566 13.5162 20.8608 15.2654C16.4342 16.1401 12.5979 16.9054 9.94194 17.5613C8.31886 18.2173 7.43352 19.3106 7.87617 20.4039Z" fill="#494940"/>
<g opacity="0.25">
<path d="M54.503 9.69026L102.753 31.5559C102.31 29.588 101.72 27.5108 101.13 25.4335L64.5365 8.15967C61.2904 8.70631 57.8967 9.14362 54.503 9.69026Z" fill="#D3D3D3"/>
<path d="M7.87637 20.4044C8.46658 22.7003 9.64703 26.9641 11.2701 31.9932L71.7666 58.4507C81.8001 55.9361 91.2435 53.5309 98.0309 51.563L20.7134 15.4846C16.2869 16.3592 12.4505 17.1246 9.79459 17.7805C8.31906 18.2178 7.43372 19.3111 7.87637 20.4044Z" fill="#D3D3D3"/>
<path d="M16.1394 48.0645C16.5821 49.595 17.1723 51.1256 17.6149 52.5469L44.0268 65.229C46.2401 64.6824 48.4534 64.1357 50.9618 63.5891L16.1394 48.0645Z" fill="#D3D3D3"/>
</g>
<path d="M108.212 53.531L130.64 63.8079L52.732 85.2362L31.9272 72.3355L108.212 53.531Z" fill="#AFAFAE"/>
<path d="M123.852 78.239L95.6698 86.7666L82.9803 78.6763L111.163 71.3513L123.852 78.239Z" fill="#D3D3D3"/>
</svg>
