<svg width="306" height="245" viewBox="0 0 306 245" fill="none" xmlns="http://www.w3.org/2000/svg">
<path d="M285.451 150.276C284.912 169.467 223.087 203.761 147.351 198.706C71.6146 193.651 10.3626 150.738 10.9014 131.547C11.4402 112.356 72.7682 100.488 148.504 105.543C224.241 110.599 285.198 130.864 285.451 150.276Z" fill="#9BAAAC"/>
<path d="M54.8287 173.797C45.4069 167.066 36.972 159.797 30.8895 149.926C25.4153 141.042 22.9017 130.544 26.1605 120.854C26.3498 120.092 26.5391 119.329 26.7284 118.566C16.2513 122.961 10.7489 127.94 10.8294 134.49C10.3823 146.603 34.0918 167.962 70.2523 183.849C65.048 180.753 59.8437 177.656 54.8287 173.797Z" fill="#C2D3D5"/>
<path d="M227.755 116.701C228.214 121.725 228.862 125.985 228.524 130.784C227.807 137.108 226.104 143.97 222.806 150.383C218.75 159.846 210.708 168.186 201.639 173.791C192.381 180.159 181.718 185.315 171.432 188.946C160.161 193.115 148.47 195.535 137.158 196.43C132.793 196.833 128.427 197.236 124.251 196.877C131.617 198.134 139.172 198.628 147.524 199.347C223.869 204.517 286.216 169.858 286.772 150.438C285.624 137.88 262.42 124.825 227.755 116.701Z" fill="#9BAAAC"/>
<path d="M285.136 146.446C284.631 165.015 222.945 175.692 147.427 171.174C71.9088 166.657 10.8763 148.231 11.3814 129.662C11.8865 111.093 73.5727 100.417 149.091 104.934C224.609 109.452 285.448 128.638 285.136 146.446Z" fill="#C2D3D5"/>
<path d="M285.136 146.446C284.631 165.015 222.945 175.692 147.427 171.174C71.9088 166.657 10.8763 148.231 11.3814 129.662C11.8865 111.093 73.5727 100.417 149.091 104.934C224.609 109.452 285.448 128.638 285.136 146.446Z" fill="#C2D3D5"/>
<path d="M258.7 138.15C258.373 152.702 208.869 161.851 148.297 158.194C87.7248 154.536 38.5033 139.361 38.8302 124.81C39.1571 110.259 88.6608 101.109 149.233 104.767C209.805 108.425 259.027 123.599 258.7 138.15Z" fill="#C2D3D5"/>
<g opacity="0.5">
<path d="M21.1446 133.297C21.1226 116.404 84.3721 106.708 160.805 111.948C203.16 114.917 242.021 121.737 266.931 130.294C243.559 118.95 199.541 109.083 148.724 106.165C73.0815 101.146 11.225 112.035 11.06 129.68C10.8532 144.096 48.634 158.656 102.279 167.187C54.5391 158.695 20.5218 145.989 21.1446 133.297Z" fill="#C2D3D5"/>
</g>
<path opacity="0.8" d="M151.954 39.5787C104.022 36.4697 64.7136 71.4114 64.3553 118.235C64.5984 120.732 64.228 122.245 64.4711 124.741C64.2859 125.497 65.0846 125.724 65.0846 125.724C68.0248 134.651 105.933 143.81 152.268 146.465C198.603 149.12 236.464 144.511 239.485 135.661C239.671 134.905 239.671 134.905 239.856 134.149C240.041 133.392 239.613 131.652 239.798 130.896C239.358 83.8447 200.5 43.6712 151.954 39.5787Z" fill="#88C8E3"/>
<path opacity="0.4" d="M200.98 58.5712C203.675 64.9952 205.572 71.1924 206.486 77.9185C207.273 88.6501 206.765 104.672 193.557 109.809C187.843 112.227 180.105 112.453 173.35 112.15C161.436 111.997 149.708 111.089 138.777 110.408C129.628 109.424 120.294 109.197 111.33 107.458C103.962 106.172 96.5937 104.887 90.5789 101.561C78.1212 93.1707 79.6704 79.87 84.655 69.9704C85.0251 68.4589 86.0082 67.93 86.3782 66.4186C73.5286 80.5495 65.5255 99.2908 64.7055 120.073C64.9485 122.567 64.5785 124.079 64.8215 126.573C64.6365 127.329 65.4346 127.555 65.4346 127.555C68.373 136.473 106.254 145.622 152.555 148.272C198.856 150.922 236.69 146.316 239.709 137.474C239.894 136.718 239.894 136.718 240.079 135.963C240.264 135.207 239.836 133.469 240.021 132.713C239.071 101.728 224.299 74.8975 200.98 58.5712Z" fill="#88C8E3"/>
<path d="M231.766 135.349C231.491 143.26 194.043 148.015 148.423 144.905C102.804 141.794 65.3501 132.968 64.8361 124.837C65.1111 116.925 102.559 112.17 148.178 115.281C194.772 117.864 232.041 127.437 231.766 135.349Z" fill="#444A72"/>
<path d="M217.753 137.164C217.663 144.33 186.477 147.633 149.117 145.223C110.967 142.593 80.6122 135.742 80.702 128.577C80.7918 121.411 111.978 118.108 149.338 120.518C186.699 122.928 217.658 130.746 217.753 137.164Z" fill="#212441"/>
<g opacity="0.6">
<path d="M92.0147 125.384L100.022 130.877C101.799 130.572 102.965 129.287 104.742 128.982C102.727 126.798 99.7307 125.144 97.7156 122.96C96.3632 124.999 94.5867 125.304 92.0147 125.384Z" fill="#2B8CA8"/>
<path d="M114.658 132.322C117.222 132.241 118.2 131.714 118.2 131.714L113.995 128.119C113.202 127.895 111.431 128.2 109.66 128.504C111.854 129.926 113.256 131.124 114.658 132.322Z" fill="#E84B9B"/>
<path d="M104.416 123.082C102.642 123.387 100.869 123.691 98.3008 123.772C100.498 125.197 103.304 127.599 105.317 129.777C107.09 129.473 108.864 129.168 110.637 128.863C108.625 126.685 105.634 125.036 104.416 123.082Z" fill="#E84B9B"/>
<path d="M105.122 129.777C106.525 130.978 108.722 132.403 110.125 133.604C111.899 133.299 113.673 132.995 114.652 132.466C113.249 131.265 111.846 130.064 110.442 128.863C108.669 129.167 106.895 129.472 105.122 129.777Z" fill="#5AC6D0"/>
<path d="M104.569 122.911C106.34 122.607 107.133 122.83 108.904 122.526L106.101 120.131C104.515 119.684 103.537 120.212 101.767 120.516C101.767 120.516 103.168 121.713 104.569 122.911Z" fill="#E84B9B"/>
<path d="M110.625 128.702C112.399 128.398 113.193 128.622 114.966 128.317L108.745 122.536C107.765 123.065 106.177 122.617 104.403 122.921C105.621 124.875 108.613 126.524 110.625 128.702Z" fill="#5AC6D0"/>
<path d="M80.2333 125.805C78.2724 126.864 76.3116 127.923 74.3507 128.982L80.525 131.533C82.4859 130.474 83.6518 129.19 85.4272 128.885L80.2333 125.805Z" fill="#F0BFD9"/>
<path d="M92.182 125.655L87.9652 122.041C85.2069 122.876 82.4486 123.711 80.486 124.771L86.4797 128.081C88.2567 127.776 90.2193 126.716 92.182 125.655Z" fill="#2B8CA8"/>
<path d="M98.2852 124.753C96.8807 123.549 95.4762 122.346 94.0717 121.143C92.2963 121.448 89.7259 121.528 87.7651 122.587L91.9785 126.197C94.7343 125.362 96.5098 125.058 98.2852 124.753Z" fill="#E84B9B"/>
<path d="M81.1524 131.646L93.4465 136.696C94.606 135.422 95.5814 134.896 96.5569 134.37L86.0297 129.017C84.2628 129.321 82.3119 130.372 81.1524 131.646Z" fill="#5AC6D0"/>
<path d="M86.0882 128.78L96.6512 134.176C97.6305 133.647 99.5893 132.59 100.569 132.061L91.9644 125.607C90.0056 126.665 88.0469 127.722 86.0882 128.78Z" fill="#E84B9B"/>
<path d="M104.574 123.101C103.172 121.903 102.564 120.927 100.977 120.48C99.2055 120.785 96.6405 120.865 94.0754 120.946C95.4773 122.145 96.8792 123.343 98.2811 124.542C100.238 123.486 102.009 123.182 104.574 123.101Z" fill="#F0BFD9"/>
<path d="M101.085 120.468C100.477 119.497 98.8939 119.052 98.2864 118.081C96.5187 118.385 93.9592 118.467 90.608 118.326C91.2155 119.297 92.799 119.741 93.4066 120.712C96.7577 120.853 99.3172 120.772 101.085 120.468Z" fill="#E84B9B"/>
<path d="M92.4903 136.386L98.6657 138.937C99.6463 138.408 100.812 137.124 101.793 136.594L96.5982 133.513C94.637 134.572 93.4709 135.856 92.4903 136.386Z" fill="#EF905B"/>
<path d="M95.6512 133.92L100.853 137.008C101.835 136.478 102.817 135.947 103.799 135.417L98.7833 131.572C98.5975 132.328 97.6154 132.859 95.6512 133.92Z" fill="#E84B9B"/>
<path d="M105.098 129.942C103.32 130.247 101.543 130.552 100.375 131.838L105.389 135.679C107.167 135.374 108.148 134.844 109.926 134.539C107.91 132.353 106.504 131.147 105.098 129.942Z" fill="#EF905B"/>
<path d="M87.8856 122.867L84.2821 120.237C81.5266 121.071 77.9763 121.68 75.0355 123.268L79.6192 125.37C82.3747 124.535 85.1301 123.701 87.8856 122.867Z" fill="#E84B9B"/>
<path d="M105.413 119.913L103.403 117.741C103.403 117.741 101.633 118.045 98.2757 117.903C98.884 118.877 99.677 119.101 101.078 120.298C102.849 119.994 104.62 119.69 105.413 119.913Z" fill="#F0BFD9"/>
<path d="M94.1982 121.154C92.795 119.953 92.0008 119.729 91.3918 118.752C89.6183 119.056 87.0506 119.137 84.2977 119.97L87.8982 122.596C89.8569 121.539 92.4246 121.458 94.1982 121.154Z" fill="#5AC6D0"/>
<path d="M80.3481 125.882L75.7637 123.781C73.8029 124.84 71.047 125.674 69.0861 126.733L74.4655 129.059C76.4263 128 78.3872 126.941 80.3481 125.882Z" fill="#2B8CA8"/>
</g>
<g opacity="0.5">
<path d="M204.177 129.79L196.125 134.797C194.717 133.588 193.123 133.137 191.529 132.686C193.681 130.866 196.631 129.273 198.597 128.21C200.191 128.661 201.785 129.113 204.177 129.79Z" fill="#2B8CA8"/>
<path d="M181.969 134.431C179.583 133.757 177.993 133.308 177.993 133.308L182.102 130.434C182.897 130.659 184.488 131.108 186.078 131.558C184.116 132.617 182.95 133.902 181.969 134.431Z" fill="#E84B9B"/>
<path d="M192.547 125.732C194.138 126.182 196.525 126.857 198.912 127.531C196.764 129.347 193.82 130.937 191.857 131.997C190.266 131.547 187.879 130.872 186.288 130.422C188.25 129.362 190.399 127.547 192.547 125.732Z" fill="#E84B9B"/>
<path d="M190.77 132.844C188.809 133.904 187.643 135.187 185.682 136.247C184.091 135.797 182.501 135.348 180.911 134.899C182.077 133.615 184.038 132.556 185.204 131.272C187.59 131.946 189.18 132.395 190.77 132.844Z" fill="#5AC6D0"/>
<path d="M192.729 125.592C191.136 125.141 189.543 124.69 188.746 124.465L191.88 122.115C193.473 122.566 194.27 122.792 196.05 122.486C194.881 123.774 193.712 125.061 192.729 125.592Z" fill="#E84B9B"/>
<path d="M186.17 131.317C184.569 130.863 183.769 130.636 182.168 130.182L188.654 124.698C190.255 125.152 191.055 125.378 192.656 125.832C190.494 127.661 188.332 129.489 186.17 131.317Z" fill="#5AC6D0"/>
<path d="M216.426 130.455C218.628 131.885 220.033 133.09 222.235 134.52L215.737 136.72C214.331 135.515 212.13 134.085 210.724 132.88L216.426 130.455Z" fill="#F0BFD9"/>
<path d="M204.127 129.414L209.019 126.773C211.4 127.444 214.389 129.091 216.585 130.514L210.899 132.93C207.91 131.284 206.323 130.836 204.127 129.414Z" fill="#2B8CA8"/>
<path d="M198.703 127.937C199.864 126.66 201.633 126.356 202.795 125.079C205.172 125.748 206.757 126.194 208.95 127.613L204.25 129.498C201.872 128.829 200.288 128.383 198.703 127.937Z" fill="#E84B9B"/>
<path d="M214.929 136.839L202.885 140.72C201.476 139.511 200.865 138.527 199.456 137.318L209.905 132.985C212.111 134.42 213.52 135.629 214.929 136.839Z" fill="#5AC6D0"/>
<path d="M210.06 133.021L199.605 137.357C198.196 136.147 196.6 135.694 195.988 134.71L204.049 129.697C206.257 131.133 207.853 131.585 210.06 133.021Z" fill="#E84B9B"/>
<path d="M192.631 125.516C193.61 124.988 194.772 123.709 195.75 123.181C198.13 123.852 199.717 124.299 202.096 124.969C201.118 125.497 199.162 126.553 197.999 127.832C196.598 126.634 194.218 125.963 192.631 125.516Z" fill="#F0BFD9"/>
<path d="M195.84 123.003C196.816 122.477 197.791 121.951 197.975 121.203C199.557 121.647 202.907 121.788 205.281 122.454C204.305 122.98 203.33 123.505 202.171 124.779C200.588 124.335 198.214 123.669 195.84 123.003Z" fill="#E84B9B"/>
<path d="M202.877 141.033L197.351 142.706C196.741 141.724 195.147 141.273 193.739 140.065L199.451 137.635C200.859 138.843 201.47 139.825 202.877 141.033Z" fill="#EF905B"/>
<path d="M199.549 137.669L193.843 140.097C192.436 138.89 191.64 138.665 190.844 138.44L195.754 135.787C197.347 136.237 198.143 136.463 199.549 137.669Z" fill="#E84B9B"/>
<path d="M190.692 132.753C192.282 133.203 193.687 134.406 195.277 134.856L190.374 137.504C188.783 137.054 187.379 135.851 185.789 135.401C187.564 135.097 189.525 134.037 190.692 132.753Z" fill="#EF905B"/>
<path d="M209.084 126.567L212.986 124.464C216.152 125.352 219.134 126.99 222.116 128.627L217.422 130.508C213.649 128.649 211.274 127.982 209.084 126.567Z" fill="#E84B9B"/>
<path d="M191.721 122.759L193.865 120.948C193.865 120.948 195.453 121.397 198.815 121.54C197.835 122.069 197.65 122.822 196.671 123.351C194.288 122.678 192.515 122.983 191.721 122.759Z" fill="#F0BFD9"/>
<path d="M202.878 124.883C203.853 124.358 205.011 123.087 205.985 122.562C208.357 123.226 210.729 123.89 213.101 124.555L209.203 126.654C206.831 125.99 204.46 125.326 202.878 124.883Z" fill="#5AC6D0"/>
<path d="M216.462 130.245L221.174 128.354C223.371 129.779 225.569 131.204 227.766 132.63L222.26 134.296C220.063 132.871 217.865 131.446 216.462 130.245Z" fill="#2B8CA8"/>
</g>
<path d="M116.811 117.903C116.624 118.664 116.624 118.664 115.819 118.435C115.013 118.205 115.013 118.205 115.2 117.444C115.386 116.682 115.386 116.682 116.191 116.911C116.191 116.911 116.997 117.141 116.811 117.903Z" fill="#EF905B"/>
<path d="M122.704 117.806C122.517 118.568 122.517 118.568 121.712 118.338C120.906 118.109 120.906 118.109 121.093 117.347C121.279 116.585 121.279 116.585 122.085 116.815C122.085 116.815 122.89 117.044 122.704 117.806Z" fill="#EF905B"/>
<path d="M117.746 120.668C117.56 121.43 117.56 121.43 116.754 121.2C115.949 120.971 115.949 120.971 116.135 120.209C116.321 119.448 116.321 119.448 117.127 119.677C117.932 119.907 117.932 119.907 117.746 120.668Z" fill="#EF905B"/>
<path d="M119.463 123.642C119.277 124.404 119.277 124.404 118.471 124.175C117.666 123.945 117.666 123.945 117.852 123.183C118.039 122.422 118.039 122.422 118.844 122.651C118.844 122.651 119.65 122.881 119.463 123.642Z" fill="#EF905B"/>
<path d="M182.314 120.34C182.127 121.102 182.933 121.331 182.933 121.331C183.738 121.561 183.925 120.799 183.925 120.799C184.111 120.037 183.306 119.808 183.306 119.808C182.5 119.578 182.314 120.34 182.314 120.34Z" fill="#EF905B"/>
<path d="M175.848 119.446C175.662 120.208 176.467 120.437 176.467 120.437C177.273 120.667 177.459 119.905 177.459 119.905C177.646 119.143 176.84 118.914 176.84 118.914C176.035 118.684 175.848 119.446 175.848 119.446Z" fill="#EF905B"/>
<path d="M179.91 123.043C180.524 124.026 180.524 124.026 181.322 124.253C182.121 124.48 182.306 123.724 182.306 123.724C182.49 122.969 181.692 122.742 181.692 122.742C180.893 122.515 180.095 122.287 179.91 123.043Z" fill="#EF905B"/>
<path d="M178.292 125.967C178.105 126.729 178.911 126.959 178.911 126.959C179.716 127.188 179.903 126.426 179.903 126.426C180.089 125.665 179.284 125.435 179.284 125.435C178.478 125.206 178.478 125.206 178.292 125.967Z" fill="#EF905B"/>
<path opacity="0.4" d="M151.955 39.5787C104.023 36.47 64.7142 71.4121 64.3554 118.236C64.5985 120.733 64.2281 122.246 64.4711 124.742C64.286 125.498 65.0846 125.725 65.0846 125.725C68.0247 134.652 105.933 143.811 152.267 146.465C198.602 149.12 236.464 144.511 239.485 135.661C239.67 134.905 239.67 134.905 239.855 134.148C240.04 133.392 239.612 131.652 239.797 130.896C239.357 83.8443 200.5 43.6709 151.955 39.5787ZM207.353 127.335C197.016 138.151 172.003 139.131 153.506 137.918C132.428 136.78 108.526 133.221 91.2672 123.46C83.8361 118.92 76.5901 113.624 74.877 106.664C73.407 102.201 74.5182 97.6625 75.6294 93.1239C76.6249 82.0799 84.1949 72.0959 92.1932 63.8517C102.159 54.5489 115.748 47.8942 131.791 45.1734C146.052 42.7549 162.338 42.5304 176.343 48.1303L177.142 48.3573C177.941 48.5844 178.739 48.8114 179.538 49.0385C196.981 58.0429 205.385 72.5681 209.795 85.9579C214.02 100.104 217.076 115.536 207.353 127.335Z" fill="#88C8E3"/>
<path opacity="0.9" d="M79.4544 95.4755C78.5113 99.3151 76.755 102.924 76.6252 106.994C76.6252 106.994 80.4316 116.287 89.4357 122.126C89.4357 122.126 89.3182 115.521 91.3929 107.074C87.2681 102.619 83.7678 99.1626 79.4544 95.4755Z" fill="white"/>
<path opacity="0.9" d="M82.5929 87.7979C86.295 90.4907 90.8132 93.4144 94.5153 96.1073C99.3042 80.1834 109.498 60.0289 130.171 46.9528C130.171 46.9528 98.64 54.4891 82.5929 87.7979Z" fill="white"/>
<mask id="mask0_324_220" style="mask-type:luminance" maskUnits="userSpaceOnUse" x="79" y="63" width="140" height="82">
<path d="M208.462 129.684C208.646 128.93 207.846 128.701 208.029 127.947C207.346 123.719 205.679 120.016 204.196 115.559C201.479 109.137 197.962 102.486 194.079 97.3425C192.229 94.3938 189.395 91.9705 186.562 89.5472C185.145 88.3355 184.529 87.3526 183.112 86.141C180.895 84.7005 185.629 82.8282 186.612 82.303C189.746 79.9731 194.23 75.6098 190.963 71.4495C189.73 69.4838 185.546 69.0938 182.962 69.1615C179.579 69.0004 176.995 69.0681 174.045 70.6439C172.078 71.6944 170.111 72.745 168.761 74.7784C167.595 76.0577 166.611 76.583 164.394 75.1425C162.978 73.9309 161.378 73.4733 159.777 73.0157C156.577 72.1005 152.027 73.2187 148.643 73.0576C146.86 73.354 145.076 73.6505 142.493 73.7182C140.709 74.0147 138.743 75.0652 136.159 75.1329C132.592 75.7258 131.109 71.2691 129.075 69.0746C127.042 66.88 125.009 64.6855 122.609 63.9991C117.808 62.6263 112.891 65.2527 110.991 69.5483C108.724 75.3521 112.607 80.4952 117.658 84.359C113.907 85.706 110.774 88.0359 109.24 90.8234C106.723 94.1361 103.839 98.957 102.923 102.727C100.839 107.777 99.5554 113.056 99.0718 118.563C86.7709 119.884 79.2703 122.578 79.3369 125.823C79.2867 133.067 110.855 140.482 148.691 143.238C187.327 146.222 218.262 142.164 218.129 135.674C219.296 134.395 215.479 132.497 208.462 129.684Z" fill="white"/>
</mask>
<g mask="url(#mask0_324_220)">
<path d="M133.563 87.9266C132.572 88.4567 131.952 87.4659 131.332 86.4752C130.897 84.724 128.972 78.4797 123.704 75.3465C122.899 75.1162 123.084 74.3558 123.269 73.5954C123.455 72.8349 124.26 73.0653 125.065 73.2956C131.758 77.6499 133.683 83.8942 133.933 86.4058C133.933 86.4058 133.748 87.1662 133.563 87.9266Z" fill="#00BBC4"/>
<path d="M125.602 72.5815C126.225 73.573 125.856 75.093 124.68 76.3813C123.688 76.9097 122.074 76.4465 120.645 75.2234C120.022 74.2319 120.391 72.7119 121.567 71.4236C122.559 70.8952 124.173 71.3584 125.602 72.5815Z" fill="#00779E"/>
<path d="M122.855 73.4406C122.669 74.2055 122.669 74.2055 122.483 74.9705C122.483 74.9705 121.669 74.7375 120.855 74.5045C121.041 73.7396 121.041 73.7395 121.227 72.9746C122.227 72.4426 122.227 72.4426 122.855 73.4406Z" fill="#00BBC4"/>
<path d="M170.525 89.3215C171.349 89.5544 171.349 89.5544 170.525 89.3215C171.349 89.5544 172.362 89.0168 172.551 88.2463C172.929 86.7053 174.439 80.5415 180.327 78.0864C181.34 77.5488 181.529 76.7783 180.705 76.5454C180.07 75.542 179.246 75.3091 179.057 76.0796C172.156 79.0723 170.457 86.0067 169.89 88.3181C169.89 88.3181 170.714 88.551 170.525 89.3215Z" fill="#00BBC4"/>
<path d="M179.474 74.3235C178.3 75.6105 178.737 77.3598 180.348 77.8221C181.776 79.0434 183.571 78.7466 183.94 77.2284C185.114 75.9413 184.677 74.192 183.066 73.7298C182.26 73.4987 180.464 73.7955 179.474 74.3235Z" fill="#00779E"/>
<path d="M182.444 75.9586C182.26 76.7187 182.26 76.7187 182.882 77.7102C183.689 77.9417 183.689 77.9417 184.68 77.413C184.865 76.6529 184.865 76.6529 184.243 75.6614C183.436 75.4299 182.629 75.1985 182.444 75.9586Z" fill="#00BBC4"/>
<path d="M184.923 101.147C183.926 101.678 184.366 103.438 184.806 105.198C187.31 109.183 190 112.405 192.505 116.39C195.009 120.375 196.701 124.127 197.582 127.647C198.022 129.407 198.648 130.404 199.088 132.164C199.529 133.924 200.409 137.444 202.404 136.381C202.59 135.617 203.402 135.85 203.588 135.086C204.517 131.267 202.199 126.518 201.318 122.998C198.559 116.489 195.801 109.98 191.859 104.766C190.421 103.538 189.98 101.778 188.542 100.549C186.919 100.084 186.107 99.8517 184.923 101.147Z" fill="#00779E"/>
<path d="M191.856 112.074C193.658 111.776 202.819 127.43 204.756 133.685C204.688 130.408 203.004 126.669 201.943 123.922C199.197 117.435 196.452 110.949 192.528 105.753C191.097 104.529 190.659 102.775 189.228 101.55C186.989 100.094 185.996 100.623 185.003 101.153C184.01 101.682 184.448 103.436 184.886 105.19C186.755 108.169 188.624 111.147 190.493 114.126C191.486 113.596 191.671 112.835 191.856 112.074Z" fill="#A070B0"/>
<path d="M208.282 140.01C207.217 137.255 206.152 134.5 203.904 133.04C203.093 132.808 202.281 132.575 201.285 133.106C198.48 133.936 197.737 136.989 197.18 139.28C196.995 140.043 196.809 140.806 196.438 142.333C196.252 143.096 196.252 143.096 196.877 144.092C197.503 145.088 198.5 144.557 198.685 143.793C198.871 143.03 198.431 141.271 198.617 140.508C198.802 139.744 199.614 139.976 200.239 140.972C200.865 141.968 201.304 143.727 201.119 144.49C201.744 145.486 202.37 146.482 203.552 145.187C204.549 144.656 204.109 142.897 203.484 141.901C203.669 141.138 202.858 140.906 203.044 140.142C203.23 139.379 203.415 138.616 204.041 139.611C204.666 140.607 204.666 140.607 205.292 141.603C205.106 142.366 205.732 143.362 205.732 143.362C206.357 144.357 207.354 143.826 207.54 143.063C208.722 141.769 208.097 140.773 208.282 140.01Z" fill="#00BBC4"/>
<path d="M121.976 98.6736C122.626 99.6819 122.244 101.231 121.862 102.78C120.066 106.418 116.587 109.588 113.758 113.766C111.12 117.17 110.165 121.042 108.368 124.68C107.986 126.229 106.763 127.544 106.381 129.093C105.999 130.641 105.235 133.739 102.711 133.037C101.87 132.803 102.061 132.029 102.061 132.029C101.143 128.463 103.321 123.277 104.927 120.413C107.296 114.452 110.698 107.95 114.559 103.231C115.783 101.916 117.006 100.602 118.038 100.061C119.644 97.1974 121.326 97.6653 121.976 98.6736Z" fill="#00779E"/>
<path d="M114.206 108.931C112.535 108.463 102.882 122.289 100.525 128.24C100.45 124.913 102.236 121.282 103.643 119.196C105.999 113.245 109.382 106.754 113.22 102.043C114.436 100.731 115.652 99.4187 116.678 98.8795C118.729 97.8011 119.565 98.035 120.211 99.0422C120.856 100.049 120.476 101.596 120.096 103.142C118.499 106.001 116.068 108.626 113.636 111.25C115.687 110.172 115.042 109.165 114.206 108.931Z" fill="#A070B0"/>
<path d="M96.9371 135.03C97.492 132.747 99.0396 129.935 101.833 129.107C102.641 129.339 103.634 128.81 104.442 129.041C107.673 129.968 107.741 133.244 107.994 135.758C107.809 136.519 108.432 137.512 108.247 138.273C108.062 139.034 108.062 139.034 107.877 139.795C106.885 140.324 106.077 140.093 105.454 139.1C105.639 138.339 106.009 136.817 105.386 135.824C104.763 134.832 103.77 135.361 103.585 136.122C102.592 136.651 103.03 138.405 102.66 139.927C102.475 140.688 101.483 141.217 100.86 140.225C100.237 139.232 100.607 137.71 100.792 136.949C100.976 136.188 101.161 135.427 101.346 134.666C101.531 133.905 100.908 132.912 100.723 133.673C100.538 134.434 99.5457 134.964 99.3607 135.725C99.1758 136.486 98.9908 137.247 98.8059 138.008C98.6209 138.769 97.0052 138.306 97.1901 137.545C95.5744 137.081 95.9443 135.559 96.9371 135.03Z" fill="#00BBC4"/>
<path d="M121.826 145.554C119.253 145.623 115.884 145.465 113.129 146.285C110.557 146.354 108.598 147.4 106.822 147.696C105.046 147.993 102.291 148.812 101.13 150.085C100.151 150.608 97.213 152.178 98.6239 153.382C100.035 154.585 101.993 153.539 103.769 153.243C107.503 151.9 112.034 150.785 116.383 150.419C115.586 150.192 113.628 151.239 112.648 151.762C111.669 152.285 109.893 152.581 108.914 153.104C107.935 153.627 104.201 154.97 104.633 156.697C104.268 158.197 106.84 158.128 107.819 157.604C114.309 155.443 121.595 153.508 128.698 152.323C131.453 151.503 134.822 151.661 137.577 150.842C140.332 150.022 141.859 147.249 137.876 146.114C133.892 144.98 129.544 145.346 125.378 144.961C123.602 145.257 122.623 145.78 121.826 145.554Z" fill="#A070B0"/>
<path d="M137.086 145.804C133.094 144.665 128.737 145.031 124.562 144.644C123.764 144.417 121.984 144.713 121.186 144.485C118.608 144.554 115.231 144.395 112.47 145.217C112.47 145.217 111.672 144.989 110.691 145.513C113.269 145.445 115.048 145.148 117.626 145.079C120.021 145.762 124.811 147.129 121.684 149.455C120.52 150.732 118.74 151.029 116.96 151.325C114.199 152.146 112.237 153.196 110.274 154.245C108.494 154.541 105.55 156.115 102.972 156.184C103.771 156.412 105.55 156.115 105.55 156.115C112.054 153.948 119.355 152.009 126.474 150.822C129.235 150.001 132.611 150.159 135.372 149.338C140.345 149.953 141.077 146.943 137.086 145.804Z" fill="#A070B0"/>
<path d="M140.993 118.003C139.709 115.991 138.235 114.751 135.552 114.82C133.89 114.351 131.849 115.426 130.829 115.964C124.971 121.739 130.673 145.621 132.147 146.861C133.431 148.873 137.134 148.266 137.512 146.723C137.89 145.179 137.626 142.63 138.005 141.086C137.929 137.765 138.686 134.678 139.631 130.819C141.407 127.195 144.393 122.261 140.993 118.003Z" fill="#00BBC4"/>
<path d="M140.996 118.003C139.713 115.992 138.241 114.752 135.561 114.821C133.899 114.352 131.861 115.427 130.841 115.964C128.613 117.81 128.31 122.674 128.007 127.537L128.196 126.765C130.424 124.919 134.765 125.319 135.86 128.102C136.954 130.885 135.557 132.965 135.82 135.514C135.443 137.057 135.895 138.834 136.159 141.383C136.801 142.389 136.423 143.932 137.064 144.938C136.875 145.709 136.498 147.252 136.309 148.024C137.328 147.486 137.328 147.486 137.517 146.715C137.895 145.172 137.631 142.623 138.009 141.08C137.934 137.76 138.69 134.674 139.635 130.816C141.41 127.193 144.393 122.26 140.996 118.003Z" fill="#00BBC4"/>
<path d="M130.403 135.775C130.138 133.224 129.872 130.673 129.607 128.121C130.138 133.224 129.645 138.865 132.032 143.664C130.934 140.878 130.668 138.327 130.403 135.775Z" fill="#00BBC4"/>
<path d="M174.235 146.844C170.106 146.489 166.16 145.39 161.849 145.778C157.537 146.167 159.357 149.058 161.542 150.461C164.517 152.084 167.856 152.219 171.013 153.098C177.934 155.821 185.037 157.799 190.985 161.045C191.775 161.265 194.142 161.924 194.508 160.437C194.084 158.729 191.109 157.106 190.503 156.143C188.924 155.703 188.318 154.74 186.739 154.3C185.95 154.08 184.554 152.897 182.976 152.457C187.104 152.812 191.657 154.875 195.421 156.718C196.817 157.901 199.002 159.304 200.156 158.037C202.1 156.989 198.519 154.402 197.73 154.182C195.545 152.779 193.359 151.376 191.781 150.936C189.413 150.277 187.228 148.874 185.65 148.434C182.493 147.555 180.125 146.896 176.786 146.76C176.603 147.504 175.814 147.284 174.235 146.844Z" fill="#A070B0"/>
<path d="M162.646 146.027C166.957 145.639 171.086 145.994 175.032 147.093C175.821 147.312 177.399 147.752 178.188 147.972C181.345 148.851 183.895 148.766 187.052 149.645C187.841 149.865 187.841 149.865 188.63 150.085C186.263 149.425 183.895 148.766 182.134 149.07C179.584 149.155 175.09 150.287 177.882 152.653C179.278 153.836 180.856 154.276 182.252 155.459C184.619 156.118 186.622 158.264 188.989 158.923C190.385 160.107 193.359 161.729 195.909 161.645C194.937 162.169 193.542 160.986 193.542 160.986C186.804 157.521 179.702 155.543 173.571 153.041C170.414 152.162 167.075 152.027 164.101 150.405C159.183 149.83 158.335 146.416 162.646 146.027Z" fill="#A070B0"/>
<path d="M161.528 131.496C162.423 135.044 163.318 138.592 163.388 141.906C163.011 143.447 163.27 145.991 163.717 147.765C164.989 149.772 167.463 150.472 169.489 149.398C170.691 148.091 176.348 124.983 170.883 118.494C169.422 117.257 167.773 116.791 166.123 116.324C163.461 116.394 162.448 116.931 161.058 119.009C156.816 121.927 159.997 126.945 161.528 131.496Z" fill="#00BBC4"/>
<path d="M160.479 118.011C161.875 115.93 162.893 115.392 165.567 115.321C167.224 115.788 168.881 116.255 170.348 117.493C172.455 119.737 172.977 124.833 172.67 129.696C172.67 129.696 172.67 129.696 172.031 128.691C169.924 126.447 165.593 126.051 164.007 128.904C162.611 130.985 163.7 133.767 163.961 136.315C164.411 138.091 164.033 139.634 163.465 141.949C163.276 142.72 162.897 144.263 162.708 145.035C162.519 145.807 162.969 147.583 163.608 148.588C162.78 148.355 162.969 147.583 162.14 147.35C161.69 145.573 162.258 143.258 161.808 141.482C161.737 138.162 160.837 134.609 159.937 131.056C160.054 126.965 156.858 121.94 160.479 118.011Z" fill="#00BBC4"/>
<path d="M170.251 137.241C170.844 134.903 170.556 132.333 171.15 129.995C170.844 134.903 171.221 140.822 169.154 145.266C168.866 142.697 169.46 140.359 170.251 137.241Z" fill="#00BBC4"/>
<path d="M112.417 106.241C111.937 111.74 114.472 118.907 120.687 121.491C127.701 124.303 134.396 121.388 141.342 120.96C148.288 120.532 155.668 121.839 163.048 123.145C172.028 124.909 181.441 128.408 188.067 122.253C193.894 115.868 192.455 104.184 187.154 97.8366C179.82 89.2966 169.173 83.8344 158.594 81.6124C148.815 79.6193 139.287 80.1136 129.828 83.8481C121.168 87.8114 112.394 95.7678 112.417 106.241Z" fill="#A070B0"/>
<path d="M187.164 97.8343C179.833 89.2986 169.189 83.8394 158.614 81.6188C148.838 79.627 139.314 80.1213 129.858 83.8543C121.202 87.816 112.614 95.0163 111.837 105.256C111.357 110.752 113.892 117.916 120.105 120.498C127.117 123.309 133.809 120.394 140.752 119.967C147.696 119.539 155.073 120.844 162.451 122.15C171.427 123.913 180.837 127.41 187.461 121.257C193.902 115.857 192.28 104.931 187.164 97.8343ZM184.743 114.847C183.464 120.114 179.535 122.209 174.191 123.095C167.247 123.522 160.235 120.712 153.657 119.635C148.861 118.262 144.681 117.871 139.519 118.004C135.956 118.594 132.576 118.432 129.013 119.022C123.851 119.155 118.255 117.554 115.171 112.648C112.705 108.724 113.002 103.98 114.897 99.6936C118.872 90.3685 131.457 84.3117 141.964 83.2935C157.198 80.4089 176.635 88.3838 182.688 102.187C184.355 105.883 185.657 111.084 184.743 114.847Z" fill="#A070B0"/>
<path opacity="0.6" d="M140.128 106.728C140.011 110.761 136.667 113.869 132.448 113.473C128.23 113.077 124.751 109.64 124.868 105.607C124.985 101.575 128.33 98.4667 132.548 98.8625C136.767 99.2583 140.246 102.695 140.128 106.728Z" fill="#635F8C"/>
<path opacity="0.6" d="M156.888 112.86C156.956 116.132 153.796 118.48 150.385 118.315C146.973 118.151 144.301 114.945 144.233 111.672C144.166 108.4 147.325 106.052 150.737 106.217C154.955 106.613 157.628 109.818 156.888 112.86Z" fill="#635F8C"/>
<path opacity="0.6" d="M173.499 107.27C173.382 111.302 170.223 113.649 166.006 113.253C161.789 112.857 159.117 109.652 159.235 105.62C159.352 101.589 162.511 99.2416 166.728 99.6373C170.76 100.793 173.432 103.998 173.499 107.27Z" fill="#635F8C"/>
<path opacity="0.6" d="M165.28 94.1686C165.162 98.2014 162.003 100.549 157.785 100.153C153.566 99.7574 150.894 96.5516 151.011 92.5187C151.129 88.4859 154.288 86.1383 158.506 86.5342C161.918 86.6987 165.397 90.1358 165.28 94.1686Z" fill="#635F8C"/>
<path opacity="0.6" d="M148.252 97.9428C148.504 100.455 146.336 102.273 143.731 102.34C141.126 102.407 139.076 100.192 138.824 97.6803C138.571 95.1681 140.739 93.3496 143.344 93.2829C146.756 93.4475 148.806 95.6618 148.252 97.9428Z" fill="#635F8C"/>
<path d="M139.327 106.508C139.398 109.777 136.056 112.877 132.641 112.707C129.227 112.538 125.741 109.099 125.669 105.829C125.597 102.56 128.94 99.4599 132.354 99.6296C136.576 100.031 139.255 103.238 139.327 106.508Z" fill="#5BC5C5"/>
<path d="M132.641 112.707C129.227 112.538 125.741 109.099 125.669 105.829C125.597 102.56 128.94 99.4599 132.354 99.6296C135.769 99.7992 139.255 103.238 139.327 106.508C139.214 110.537 136.056 112.877 132.641 112.707ZM132.354 99.6296C128.94 99.4599 125.781 101.8 125.853 105.07C125.925 108.339 128.603 111.546 132.018 111.716C135.432 111.885 138.591 109.545 138.519 106.276C139.255 103.238 135.769 99.7992 132.354 99.6296Z" fill="#0096A6"/>
<path d="M137.528 106.826C137.783 109.336 135.433 111.908 132.018 111.738C129.411 111.801 126.549 109.353 126.477 106.084C126.221 103.574 128.572 101.001 131.986 101.171C135.4 101.341 137.456 103.556 137.528 106.826Z" fill="white"/>
<path d="M132.227 110.955C128.813 110.785 126.942 107.811 126.686 105.301C126.614 102.032 129.588 100.451 132.195 100.389C135.609 100.559 137.48 103.533 137.736 106.043C137.808 109.312 135.457 111.884 132.227 110.955ZM132.818 101.38C130.212 101.443 128.045 103.256 127.493 105.533C127.749 108.043 129.804 110.258 132.227 110.955C134.833 110.892 137 109.079 137.552 106.802C138.103 104.524 135.425 101.318 132.818 101.38Z" fill="#437898"/>
<path d="M135.131 106.106C134.763 107.624 133.588 108.91 131.972 108.445C130.357 107.98 128.925 106.756 129.293 105.238C129.66 103.72 130.836 102.434 132.451 102.899C134.067 103.364 135.498 104.588 135.131 106.106Z" fill="#5D1C00"/>
<path d="M135.105 106.083C134.738 107.601 133.746 108.128 132.938 107.895C131.323 107.431 130.699 106.439 130.883 105.68C131.25 104.162 132.242 103.635 133.05 103.867C133.857 104.1 134.481 105.091 135.105 106.083Z" fill="#833723"/>
<path d="M134.323 105.851C134.139 106.61 133.956 107.369 132.34 106.904C131.532 106.671 130.725 106.439 131.092 104.921C131.276 104.162 131.46 103.403 133.075 103.867C133.699 104.859 134.507 105.091 134.323 105.851Z" fill="#2C0000"/>
<path d="M132.944 104.626C132.76 105.385 132.76 105.385 131.952 105.153C131.144 104.921 131.144 104.921 131.328 104.162C131.512 103.403 131.512 103.403 132.32 103.635L132.944 104.626Z" fill="white"/>
<path d="M132.772 101.377C130.166 101.441 127.191 103.025 127.261 106.296C127.515 108.807 129.384 111.782 132.798 111.949C135.404 111.885 138.379 110.302 138.309 107.031C137.432 103.528 135.378 101.313 132.772 101.377ZM132.912 107.919C131.113 108.215 128.068 106.527 128.437 105.008C128.805 103.488 129.981 102.201 131.78 101.905C133.579 101.609 136.001 102.304 137.248 104.288C136.695 106.567 134.711 107.623 132.912 107.919Z" fill="#CBCCCE"/>
<path d="M134.174 100.061C133.344 99.8271 133.344 99.8271 132.513 99.5927C132.513 99.5927 131.683 99.3583 131.494 100.13C131.494 100.13 130.663 99.8952 130.475 100.667L129.455 101.203C129.455 101.203 129.455 101.203 128.436 101.74L128.247 102.512C128.059 103.283 128.059 103.283 127.87 104.054C127.681 104.826 127.681 104.826 127.492 105.597L127.304 106.369L127.115 107.14C127.115 107.14 127.115 107.14 126.926 107.911C126.926 107.911 126.926 107.911 126.737 108.683C126.737 108.683 127.568 108.917 127.379 109.688L128.21 109.923C128.21 109.923 128.21 109.923 127.379 109.688C127.379 109.688 126.549 109.454 126.737 108.683C126.737 108.683 126.737 108.683 126.926 107.911C126.926 107.911 126.926 107.911 127.115 107.14C127.115 107.14 127.115 107.14 127.304 106.369L127.492 105.597C127.681 104.826 127.681 104.826 127.87 104.054C128.059 103.283 128.059 103.283 128.247 102.512L128.436 101.74C128.436 101.74 128.625 100.969 129.455 101.203L130.475 100.667L131.494 100.13L132.324 100.364C132.513 99.5927 133.344 99.8271 134.174 100.061Z" fill="#5BC5C5"/>
<path d="M160.036 105.818C160.108 109.087 162.787 112.294 167.01 112.697C170.424 112.867 173.583 110.527 173.694 106.498C173.622 103.229 170.943 100.022 166.721 99.6199C163.306 99.4497 159.964 102.549 160.036 105.818Z" fill="#5BC5C5"/>
<path d="M166.222 112.478C162.81 112.308 159.325 108.87 159.253 105.603C159.181 102.336 162.521 99.2387 165.934 99.4087C169.346 99.5787 172.83 103.016 172.902 106.283C173.598 110.541 170.441 112.88 166.222 112.478ZM166.557 100.4C163.145 100.23 159.988 102.568 160.06 105.835C160.133 109.103 162.81 112.308 166.222 112.478C169.634 112.648 172.791 110.309 172.719 107.042C172.83 103.016 169.969 100.57 166.557 100.4Z" fill="#0096A6"/>
<path d="M160.839 106.069C161.095 108.579 162.968 111.555 166.384 111.725C168.992 111.663 171.967 110.082 171.895 106.812C171.639 104.302 169.766 101.326 166.35 101.155C163.742 101.218 161.575 103.031 160.839 106.069Z" fill="white"/>
<path d="M166.385 111.725C162.971 111.555 161.1 108.58 160.843 106.071C160.771 102.802 163.745 101.222 166.352 101.16C169.766 101.33 171.638 104.304 171.894 106.814C172.15 109.324 169.8 111.895 166.385 111.725ZM166.352 101.16C163.745 101.222 161.579 103.034 161.027 105.312C161.283 107.821 163.339 110.036 165.761 110.733C168.368 110.671 170.535 108.859 171.086 106.582C171.638 104.304 169.582 102.089 166.352 101.16Z" fill="#437898"/>
<path d="M169.295 106.875C168.927 108.395 167.751 109.681 166.134 109.216C164.516 108.75 163.083 107.525 163.451 106.006C163.819 104.487 164.995 103.2 166.612 103.665C168.413 103.371 169.663 105.356 169.295 106.875Z" fill="#5D1C00"/>
<path d="M168.49 106.641C168.122 108.161 167.128 108.689 166.319 108.456C164.7 107.99 164.075 106.997 164.259 106.236C164.627 104.716 165.62 104.188 166.43 104.421C168.233 104.127 168.858 105.12 168.49 106.641Z" fill="#833723"/>
<path d="M168.481 106.622C168.297 107.381 168.113 108.14 166.498 107.675C165.69 107.442 164.882 107.21 165.25 105.692C165.433 104.933 165.617 104.174 167.233 104.639C167.233 104.639 167.857 105.63 168.481 106.622Z" fill="#2C0000"/>
<path d="M167.102 105.397C166.918 106.156 166.918 106.156 166.11 105.924C165.301 105.691 165.301 105.691 165.485 104.932C165.669 104.174 165.669 104.174 166.477 104.406C166.477 104.406 166.477 104.406 167.102 105.397Z" fill="white"/>
<path d="M160.84 106.071C161.095 108.582 162.966 111.557 166.382 111.727C168.989 111.664 171.965 110.082 171.894 106.811C171.638 104.3 169.767 101.324 166.352 101.155C163.744 101.218 161.576 103.032 160.84 106.071ZM163.008 104.256C163.56 101.977 166.168 101.914 167.783 102.379C169.399 102.843 170.646 104.827 170.278 106.346C170.534 108.857 166.934 109.448 165.503 108.224C163.887 107.759 162.639 105.775 163.008 104.256Z" fill="#CBCCCE"/>
<path d="M168.332 100.833C167.501 100.599 167.501 100.599 166.671 100.364C166.671 100.364 165.84 100.13 165.652 100.901C165.652 100.901 164.821 100.667 164.632 101.438L163.613 101.975C163.613 101.975 163.613 101.975 162.594 102.513L162.405 103.284C162.216 104.055 162.216 104.055 162.028 104.827C161.839 105.598 161.839 105.598 161.65 106.369L161.461 107.141C161.461 107.141 161.461 107.141 161.273 107.912C161.273 107.912 161.273 107.912 161.084 108.684C161.084 108.684 161.084 108.684 160.895 109.455C160.895 109.455 161.725 109.689 161.537 110.461L162.367 110.695C162.367 110.695 162.367 110.695 161.537 110.461C161.537 110.461 160.706 110.226 160.895 109.455C160.895 109.455 160.895 109.455 161.084 108.684C161.084 108.684 161.084 108.684 161.273 107.912C161.273 107.912 161.273 107.912 161.461 107.141L161.65 106.369C161.839 105.598 161.839 105.598 162.028 104.827C162.216 104.055 162.216 104.055 162.405 103.284L162.594 102.513C162.594 102.513 162.783 101.741 163.613 101.975L164.632 101.438L165.652 100.901L166.482 101.136C166.671 100.364 167.501 100.599 168.332 100.833Z" fill="#5BC5C5"/>
<path d="M146.028 111.323C146.284 113.832 148.155 116.807 151.569 116.977C154.176 116.914 157.15 115.334 157.078 112.065C156.822 109.555 154.951 106.581 151.537 106.411C148.123 106.241 145.956 108.054 146.028 111.323Z" fill="#5BC5C5"/>
<path d="M150.786 116.766C147.372 116.596 145.501 113.621 145.245 111.112C145.173 107.843 148.147 106.262 150.754 106.2C154.168 106.37 156.039 109.344 156.295 111.854C156.367 115.123 154.2 116.936 150.786 116.766ZM151.561 106.432C148.955 106.494 146.788 108.307 146.236 110.585C146.492 113.095 148.363 116.069 150.97 116.007C153.576 115.944 155.743 114.131 156.295 111.854C156.039 109.344 153.984 107.129 151.561 106.432Z" fill="#0096A6"/>
<path d="M146.834 111.576C147.09 114.086 148.338 116.069 150.945 116.007C153.552 115.945 155.535 114.891 155.279 112.382C155.023 109.872 153.775 107.889 151.168 107.951C148.745 107.253 146.578 109.066 146.834 111.576Z" fill="white"/>
<path d="M150.945 116.007C148.338 116.069 146.283 113.854 146.834 111.576C146.578 109.066 148.745 107.253 151.168 107.951C153.775 107.889 155.83 110.104 155.279 112.382C155.719 114.132 153.552 115.945 150.945 116.007ZM151.168 107.951C148.561 108.013 147.386 109.299 146.834 111.576C147.09 114.086 148.522 115.31 150.945 116.007C153.552 115.945 154.727 114.659 155.279 112.382C155.023 109.872 153.775 107.889 151.168 107.951Z" fill="#437898"/>
<path d="M153.672 111.891C153.304 113.412 152.31 113.94 151.501 113.707C149.883 113.242 149.258 112.249 149.442 111.488C149.811 109.967 150.804 109.439 151.613 109.672C152.607 109.144 154.041 110.37 153.672 111.891Z" fill="#5D1C00"/>
<path d="M152.881 111.685C152.697 112.444 151.706 112.971 150.714 113.498C149.906 113.266 149.283 112.274 148.659 111.283C148.843 110.524 149.835 109.997 150.826 109.47C152.441 109.934 153.065 110.926 152.881 111.685Z" fill="#833723"/>
<path d="M152.856 111.663C152.672 112.422 152.488 113.181 151.68 112.949C150.873 112.717 150.065 112.484 150.249 111.725C150.433 110.966 150.617 110.207 151.424 110.439C152.232 110.671 152.232 110.671 152.856 111.663Z" fill="#2C0000"/>
<path d="M151.502 110.439C151.318 111.198 151.318 111.198 150.51 110.966C149.702 110.733 149.702 110.733 149.886 109.974C150.07 109.216 150.07 109.216 150.878 109.448C150.694 110.207 151.502 110.439 151.502 110.439Z" fill="white"/>
<path d="M146.835 111.577C147.09 114.088 148.337 116.071 150.944 116.008C153.55 115.945 155.533 114.89 155.278 112.38C155.023 109.869 153.776 107.886 151.169 107.949C148.747 107.253 146.58 109.067 146.835 111.577ZM148.195 109.531C148.563 108.012 151.169 107.949 151.977 108.182C153.592 108.646 154.215 109.637 154.655 111.388C154.286 112.907 152.303 113.962 150.688 113.497C149.073 113.033 147.827 111.05 148.195 109.531Z" fill="#CBCCCE"/>
<path d="M152.334 107.376C151.501 107.141 151.501 107.141 151.501 107.141L150.668 106.907C150.668 106.907 149.835 106.673 149.646 107.445L148.624 107.982C148.624 107.982 148.624 107.982 148.435 108.755C148.435 108.755 148.435 108.755 148.246 109.527L148.057 110.299L147.867 111.071C147.867 111.071 147.867 111.071 147.678 111.843C147.678 111.843 147.678 111.843 147.489 112.615C147.489 112.615 147.489 112.615 147.3 113.387C147.3 113.387 147.3 113.387 148.133 113.621L148.965 113.856C148.965 113.856 148.965 113.856 148.133 113.621C148.133 113.621 148.133 113.621 148.322 112.849C148.322 112.849 148.322 112.849 148.511 112.077C148.511 112.077 148.511 112.077 148.7 111.305L148.889 110.533C149.079 109.761 149.079 109.761 149.268 108.989L149.457 108.217C149.457 108.217 149.457 108.217 149.646 107.445L150.668 106.907C150.668 106.907 151.501 107.141 151.69 106.369L152.523 106.604C151.501 107.141 151.501 107.141 152.334 107.376Z" fill="#5BC5C5"/>
<path d="M151.836 92.7618C151.908 96.0309 154.772 98.4792 157.38 98.4175C160.795 98.5883 163.146 96.0166 162.889 93.5066C162.817 90.2375 159.953 87.7892 157.345 87.851C154.922 87.1535 151.763 89.4927 151.836 92.7618Z" fill="#5BC5C5"/>
<path d="M158.19 98.6084C154.774 98.4376 152.092 95.2292 152.02 91.9592C151.947 88.6892 155.107 86.3493 158.523 86.5202C161.939 86.691 164.62 89.8993 164.693 93.1694C163.774 96.9662 160.614 99.3061 158.19 98.6084ZM158.155 88.0389C154.739 87.8681 152.571 89.6811 152.644 92.9511C152.717 96.2212 154.774 98.4376 158.19 98.6084C161.606 98.7792 163.774 96.9662 163.701 93.6962C163.629 90.4262 160.764 87.9772 158.155 88.0389Z" fill="#0096A6"/>
<path d="M153.427 93.2038C153.683 95.7136 155.739 97.9291 158.346 97.8673C160.953 97.8055 163.12 95.993 162.864 93.4832C162.607 90.9734 160.552 88.7579 157.945 88.8197C155.337 88.8816 153.354 89.9349 153.427 93.2038Z" fill="white"/>
<path d="M157.567 97.6402C154.959 97.7021 152.902 95.4855 152.829 92.2151C152.573 89.7041 154.741 87.8908 158.158 88.0615C160.766 87.9997 162.823 90.2162 162.895 93.4867C162.344 95.7651 160.176 97.5784 157.567 97.6402ZM157.974 88.821C155.365 88.8828 153.381 89.9367 153.638 92.4476C153.894 94.9586 155.143 96.9426 157.751 96.8808C160.36 96.8189 162.344 95.7651 162.087 93.2541C162.639 90.9757 160.582 88.7591 157.974 88.821Z" fill="#437898"/>
<path d="M160.266 93.5647C159.898 95.0848 158.905 95.612 157.912 96.1391C156.293 95.6732 155.668 94.6803 155.043 93.6873C155.411 92.1672 156.404 91.64 157.397 91.1129C159.199 90.8187 160.634 92.0446 160.266 93.5647Z" fill="#5D1C00"/>
<path d="M159.475 93.3369C159.291 94.0958 158.116 95.3811 157.308 95.1486C156.5 94.916 155.068 93.6919 155.252 92.9329C155.435 92.1739 156.611 90.8886 157.419 91.1212C159.034 91.5863 159.842 91.8189 159.475 93.3369Z" fill="#833723"/>
<path d="M159.459 93.3099C159.274 94.0711 159.09 94.8323 158.279 94.599C157.469 94.3657 156.658 94.1325 156.842 93.3713C157.027 92.6102 157.211 91.849 158.022 92.0822C159.017 91.5543 159.643 92.5487 159.459 93.3099Z" fill="#2C0000"/>
<path d="M158.095 92.0898C157.912 92.8484 157.912 92.8484 157.104 92.6158C156.295 92.3832 156.295 92.3832 156.479 91.6246C156.663 90.866 156.663 90.866 157.471 91.0986C157.471 91.0986 158.279 91.3312 158.095 92.0898Z" fill="white"/>
<path d="M153.427 93.2055C153.683 95.7156 155.738 97.931 158.345 97.8685C160.952 97.8059 163.119 95.9926 162.863 93.4825C162.607 90.9724 160.552 88.757 157.945 88.8195C155.339 88.882 153.355 89.9361 153.427 93.2055ZM154.787 91.1599C155.155 89.6413 157.761 89.5788 159.377 90.0433C160.992 90.5079 161.615 91.4994 162.055 93.2502C162.495 95.001 159.704 95.8228 158.089 95.3583C155.666 94.6616 154.419 92.6785 154.787 91.1599Z" fill="#CBCCCE"/>
<path d="M159.116 88.2805C158.282 88.046 158.282 88.046 157.447 87.8116L156.613 87.5771C156.613 87.5771 155.778 87.3426 155.589 88.1151L154.565 88.653C154.565 88.653 154.565 88.653 154.376 89.4254L154.187 90.1978C153.997 90.9702 153.997 90.9702 153.808 91.7427C153.618 92.5151 153.618 92.5151 153.429 93.2875C153.429 93.2875 153.429 93.2875 153.24 94.0599C153.24 94.0599 153.24 94.0599 153.05 94.8323C153.05 94.8323 153.05 94.8323 152.861 95.6047C152.861 95.6047 152.861 95.6047 152.671 96.3771C152.671 96.3771 152.672 96.3772 153.317 97.384L154.151 97.6185C154.151 97.6185 154.151 97.6185 153.317 97.384C153.317 97.384 153.317 97.384 152.482 97.1496C152.482 97.1496 152.482 97.1496 152.671 96.3771C152.671 96.3771 152.671 96.3771 152.861 95.6047C152.861 95.6047 152.861 95.6047 153.05 94.8323C153.24 94.0599 153.24 94.0599 153.429 93.2875C153.618 92.5151 153.618 92.5151 153.808 91.7427L153.997 90.9702C153.997 90.9702 153.997 90.9702 155.021 90.4323L156.045 89.8944L157.069 89.3564L157.903 89.5909C158.282 88.0461 158.282 88.046 159.116 88.2805Z" fill="#5BC5C5"/>
<path d="M140.021 96.3393C140.277 98.8491 141.709 100.073 144.132 100.77C146.739 100.709 147.914 99.4228 148.466 97.1454C148.209 94.6357 146.778 93.4117 144.354 92.7144C141.747 92.7762 140.572 94.062 140.021 96.3393Z" fill="#5BC5C5"/>
<path d="M144.132 100.77C141.525 100.832 139.469 98.6168 140.021 96.3394C139.764 93.8297 141.931 92.0172 144.354 92.7145C146.961 92.6527 149.017 94.8682 148.466 97.1456C148.722 99.6553 146.739 100.709 144.132 100.77ZM144.354 92.7145C141.747 92.7763 140.572 94.0621 140.021 96.3394C140.277 98.8492 141.709 100.073 144.132 100.77C146.739 100.709 147.914 99.4229 148.466 97.1456C148.209 94.6358 146.778 93.4118 144.354 92.7145Z" fill="#0096A6"/>
<path d="M140.822 96.5679C140.454 98.0872 142.512 100.304 144.313 100.01C145.929 100.475 148.098 98.6615 147.657 96.9096C148.025 95.3903 145.968 93.1732 144.167 93.4675C142.366 93.7619 141.19 95.0486 140.822 96.5679Z" fill="white"/>
<path d="M144.313 100.005C142.698 99.5408 141.268 98.3178 140.828 96.5685C141.195 95.0514 142.369 93.7667 144.167 93.4727C145.781 93.9372 147.212 95.1603 147.652 96.9096C148.092 98.6589 145.927 100.47 144.313 100.005ZM144.167 93.4727C142.553 93.0081 141.379 94.2929 140.828 96.5685C140.461 98.0855 141.891 99.3086 144.313 100.005C145.927 100.47 147.101 99.1851 147.652 96.9096C147.212 95.1603 145.781 93.9372 144.167 93.4727Z" fill="#437898"/>
<path d="M145.859 97.2306C145.675 97.9897 144.684 98.5162 143.692 99.0428C142.884 98.8103 142.26 97.8187 141.636 96.8272C141.82 96.0681 142.811 95.5416 143.803 95.015C145.419 95.48 146.226 95.7125 145.859 97.2306Z" fill="#5D1C00"/>
<path d="M145.843 97.204C145.659 97.9653 145.474 98.7265 144.664 98.4934C143.853 98.2602 143.042 98.0271 143.227 97.2658C143.411 96.5046 143.595 95.7433 144.406 95.9765C145.401 95.4484 146.027 96.4428 145.843 97.204Z" fill="#833723"/>
<path d="M145.051 96.9985C144.867 97.7576 144.867 97.7576 143.876 98.2841C143.068 98.0516 143.068 98.0516 142.444 97.0601C142.628 96.301 142.628 96.301 143.619 95.7745C144.427 96.007 145.235 96.2395 145.051 96.9985Z" fill="#2C0000"/>
<path d="M144.466 95.9858C143.486 96.5056 143.486 96.5056 142.868 95.5277C142.868 95.5277 143.667 95.7567 144.466 95.9858Z" fill="white"/>
<path d="M140.823 96.569C140.454 98.0887 142.511 100.306 144.312 100.011C145.928 100.475 148.097 98.6607 147.657 96.9086C148.025 95.3889 145.969 93.1719 144.168 93.467C142.367 93.762 141.191 95.0493 140.823 96.569ZM141.999 95.2817C142.367 93.762 143.984 94.2268 144.792 94.4592C145.6 94.6916 146.224 95.6839 146.849 96.6761C146.48 98.1958 144.68 98.4909 143.872 98.2585C143.063 98.026 141.631 96.8014 141.999 95.2817Z" fill="#CBCCCE"/>
<path d="M145.291 92.9437C144.484 92.7118 144.484 92.7118 144.484 92.7118C144.484 92.7118 144.484 92.7118 143.676 92.48C143.676 92.48 142.869 92.2481 142.685 93.0078C142.685 93.0078 141.878 92.776 141.693 93.5357C141.693 93.5357 141.693 93.5357 141.509 94.2954L141.325 95.0551L141.14 95.8147C141.14 95.8147 141.14 95.8147 140.333 95.5829C140.333 95.5829 140.333 95.5829 140.517 94.8232L140.702 94.0635L140.886 93.3038C140.886 93.3038 140.886 93.3038 141.07 92.5441L142.062 92.0163L142.869 92.2481L143.676 92.48C144.484 92.7118 144.484 92.7118 145.291 92.9437Z" fill="#5BC5C5"/>
</g>
<path d="M22.4453 132.041C25.012 131.961 26.4151 133.162 27.0242 134.137L27.209 133.386C27.3939 132.634 25.1968 131.21 22.6301 131.289C20.0634 131.368 17.4967 131.448 17.921 133.176C17.921 133.176 17.7362 133.927 18.5302 134.152C18.1059 132.424 19.8786 132.12 22.4453 132.041Z" fill="#6D6E71"/>
<path d="M22.4824 135.281C25.0403 135.201 26.8068 134.898 26.9906 134.151C26.383 133.182 24.0089 132.515 22.4262 132.071C19.8683 132.151 18.1017 132.454 17.918 133.201C18.5256 134.17 20.1083 134.615 22.4824 135.281Z" fill="#00874C"/>
<path d="M23.449 134.77C21.8703 134.329 20.1088 134.631 18.7129 133.448L18.8957 132.705C18.1063 132.485 17.9236 133.228 17.9236 133.228C18.5301 134.191 20.1088 134.631 22.6597 134.55C24.2384 134.99 25.2106 134.468 26.1827 133.946C25.2106 134.468 24.2384 134.99 23.449 134.77Z" fill="#00874C"/>
<path d="M19.7186 132.958C19.5301 133.718 19.5301 133.718 19.7186 132.958C18.9198 132.733 18.9198 132.733 18.9198 132.733C18.7314 133.493 19.7186 132.958 19.7186 132.958Z" fill="#C2E1B7"/>
<path d="M20.5122 133.152C19.7009 132.925 20.7043 132.381 20.5122 133.152C20.7043 132.381 20.7043 132.381 20.5122 133.152Z" fill="#C2E1B7"/>
<path d="M146.938 167.913C149.504 167.833 150.907 169.033 151.517 170.009L151.701 169.258C151.886 168.506 149.689 167.082 147.122 167.161C144.556 167.24 141.989 167.319 142.413 169.047C142.413 169.047 142.229 169.798 143.023 170.023C143.392 168.519 145.35 167.464 146.938 167.913Z" fill="#6D6E71"/>
<path d="M147.175 170.387C149.738 170.308 151.507 170.005 151.692 169.255C151.083 168.283 149.498 167.836 147.12 167.166C144.557 167.246 142.788 167.549 142.604 168.298C143.028 170.02 145.406 170.69 147.175 170.387Z" fill="#00874C"/>
<path d="M148.151 169.86C146.572 169.42 144.811 169.721 143.415 168.538L143.597 167.796C142.808 167.575 142.625 168.318 142.625 168.318C143.232 169.281 144.811 169.721 147.361 169.64C148.94 170.081 149.912 169.558 150.884 169.036C149.73 170.301 148.94 170.081 148.151 169.86Z" fill="#00874C"/>
<path d="M275.206 142.774C277.773 142.694 279.175 143.894 279.784 144.87L279.969 144.118C280.154 143.366 277.958 141.942 275.391 142.022C272.824 142.102 270.258 142.182 270.682 143.91C270.682 143.91 270.496 144.663 271.29 144.886C270.867 143.158 272.639 142.854 275.206 142.774Z" fill="#6D6E71"/>
<path d="M274.46 145.805C277.018 145.724 278.784 145.421 278.968 144.673C278.361 143.704 276.779 143.259 274.405 142.593C271.847 142.674 270.08 142.978 269.896 143.725C271.295 144.917 272.877 145.361 274.46 145.805Z" fill="#00874C"/>
<path d="M276.209 145.502C274.63 145.062 272.869 145.364 271.473 144.181L271.656 143.438C270.867 143.218 270.684 143.961 270.684 143.961C271.29 144.924 272.869 145.364 275.42 145.282C276.998 145.722 277.971 145.2 278.943 144.677C277.971 145.2 276.998 145.722 276.209 145.502Z" fill="#00874C"/>
<path d="M273.469 143.111C273.277 143.882 273.277 143.882 273.469 143.111C272.465 143.655 273.277 143.882 273.469 143.111Z" fill="#C2E1B7"/>
<path d="M270.684 144.039C271.468 144.252 271.468 144.252 271.468 144.252C271.468 144.252 271.468 144.252 272.251 144.464L273.035 144.677L273.819 144.89L274.603 145.103L275.387 145.316L276.171 145.529L276.954 145.741L277.738 145.954L278.522 146.167C278.522 146.167 278.522 146.167 279.306 146.38C279.306 146.38 279.306 146.38 278.522 146.167C278.522 146.167 278.522 146.167 277.738 145.954L276.954 145.741L276.171 145.529L275.387 145.316C274.603 145.103 273.819 144.89 273.819 144.89L273.035 144.677L272.251 144.464L271.468 144.252C270.501 144.772 270.501 144.772 270.684 144.039Z" fill="white"/>
</svg>
